<?xml version="1.0" encoding="iso-8859-1"?>
<!-- Generator: Adobe Illustrator 16.0.0, SVG Export Plug-In . SVG Version: 6.00 Build 0)  -->
<!DOCTYPE svg PUBLIC "-//W3C//DTD SVG 1.1//EN" "http://www.w3.org/Graphics/SVG/1.1/DTD/svg11.dtd">
<svg version="1.1" id="Capa_1" xmlns="http://www.w3.org/2000/svg" xmlns:xlink="http://www.w3.org/1999/xlink" x="0px" y="0px"
	 width="786px" height="786px" viewBox="0 0 786 786" style="enable-background:new 0 0 786 786;" xml:space="preserve">
<g>
	<g>
		<g>
			<path d="M393,786c-10.9,0-30-7-69.7-67.4c-25-38.1-54-91.3-81.5-149.699c-27.9-59.301-53.1-121.4-70.8-174.7
				c-20-60.2-30.6-109.1-30.6-141.5c0-67.5,26.3-130.9,74-178.6C262.101,26.4,325.5,0,393,0C460.5,0,523.9,26.3,571.6,74
				c47.701,47.7,74,111.2,74,178.6c0,73.5-53.1,211.6-102.799,316.2c-27.6,58.2-56.6,111.3-81.701,149.7
				c-13.299,20.3-25.199,36.2-35.6,47.3C412.801,779.6,402.4,786,393,786z M393,19.8C330.8,19.8,272.3,44,228.4,88
				s-68.2,102.4-68.2,164.6c0,58.5,39.1,179.4,99.5,307.8c27.1,57.6,55.6,109.899,80.1,147.3c37.4,56.8,51.7,58.5,53.2,58.5
				c0.5,0,13.9-0.7,51.599-58.5c24.602-37.601,53.102-90,80.301-147.4c61.301-129.1,100.9-249.9,100.9-307.8
				c0-62.2-24.201-120.7-68.201-164.6C513.701,44,455.201,19.8,393,19.8z"/>
		</g>
		<g>
			<path d="M393,391.8c-79.7,0-144.6-64.9-144.6-144.6c0-79.7,64.9-144.6,144.6-144.6c79.701,0,144.599,64.9,144.599,144.6
				C537.6,326.9,472.701,391.8,393,391.8z M393,122.4c-68.8,0-124.8,56-124.8,124.8c0,68.8,56,124.8,124.8,124.8
				c68.8,0,124.8-56,124.8-124.8C517.801,178.4,461.801,122.4,393,122.4z"/>
		</g>
	</g>
</g>
<g>
</g>
<g>
</g>
<g>
</g>
<g>
</g>
<g>
</g>
<g>
</g>
<g>
</g>
<g>
</g>
<g>
</g>
<g>
</g>
<g>
</g>
<g>
</g>
<g>
</g>
<g>
</g>
<g>
</g>
</svg>
