<?xml version="1.0" standalone="no"?>
<!DOCTYPE svg PUBLIC "-//W3C//DTD SVG 20010904//EN"
 "http://www.w3.org/TR/2001/REC-SVG-20010904/DTD/svg10.dtd">
<svg version="1.0" xmlns="http://www.w3.org/2000/svg"
 width="1280.000000pt" height="640.000000pt" viewBox="0 0 1280.000000 640.000000"
 preserveAspectRatio="xMidYMid meet">
<metadata>
Created by potrace 1.15, written by Peter Selinger 2001-2017
</metadata>
<g transform="translate(0.000000,640.000000) scale(0.100000,-0.100000)"
fill="#000000" stroke="none">
<path d="M8925 6211 c-3 -6 2 -14 10 -19 13 -7 6 -17 -40 -56 -33 -28 -61 -46
-70 -42 -24 9 -114 -45 -178 -106 -58 -54 -60 -58 -45 -79 12 -19 22 -23 64
-20 33 1 55 -3 69 -14 19 -15 17 -16 -32 -10 -48 5 -53 4 -53 -14 0 -11 -4
-23 -10 -26 -5 -3 -10 0 -10 8 0 20 -46 61 -55 48 -9 -16 -115 -14 -115 2 0 6
16 25 35 40 40 32 44 51 14 68 -51 27 -211 -40 -275 -115 -19 -22 -49 -45 -67
-51 -25 -8 -32 -16 -32 -35 0 -22 4 -25 30 -23 55 4 76 13 86 39 8 23 13 25
37 19 15 -4 50 -8 77 -9 62 -2 82 -11 100 -47 16 -31 21 -75 6 -51 -6 10 -10
7 -15 -11 -6 -27 -55 -57 -90 -57 -20 1 -19 2 4 16 l25 15 -25 -7 c-14 -3 -37
-6 -52 -6 -15 1 -30 -3 -33 -8 -4 -6 -18 -10 -33 -10 -20 0 -23 -3 -14 -12 14
-14 16 -32 2 -23 -5 3 -18 0 -28 -6 -15 -9 -24 -8 -45 6 -15 9 -27 22 -27 27
0 15 -40 68 -51 68 -5 0 -4 -9 3 -20 19 -31 1 -36 -26 -7 -14 15 -35 27 -48
27 -22 -1 -22 -1 5 -22 16 -11 33 -32 38 -45 14 -36 -13 -90 -53 -108 l-33
-14 37 -1 c30 0 42 6 67 37 31 38 40 39 21 2 -9 -17 -7 -19 18 -19 15 0 55 -7
87 -15 40 -11 61 -12 63 -5 2 5 26 10 53 10 48 0 49 -1 43 -25 -8 -31 19 -75
46 -75 27 0 46 -64 31 -104 -13 -33 1 -33 -203 3 -64 11 -169 23 -235 27
l-118 7 0 59 c0 53 -4 63 -28 84 -25 22 -37 24 -122 24 -51 0 -100 -3 -109 -6
-28 -11 -17 -21 17 -17 25 3 29 2 15 -6 -9 -6 -40 -11 -70 -12 -68 -2 -85 -6
-92 -25 -5 -13 1 -15 36 -10 42 7 42 6 18 -8 -14 -9 -33 -15 -43 -16 -14 0
-16 -6 -11 -38 6 -38 5 -39 -33 -55 -22 -8 -93 -25 -159 -36 -372 -67 -762
-210 -1001 -367 -84 -56 -99 -62 -105 -43 -3 8 -55 8 -198 0 -107 -7 -202 -14
-210 -17 -23 -8 -818 -27 -1171 -28 -265 -1 -329 -4 -343 -15 -10 -8 -14 -21
-10 -30 3 -9 10 -54 15 -99 5 -46 12 -88 15 -94 3 -5 26 -18 50 -28 24 -11 44
-23 44 -28 0 -5 -18 -12 -40 -16 -69 -11 -45 -36 35 -36 33 0 47 -5 54 -19 12
-22 -2 -31 -53 -31 -18 0 -41 -6 -51 -14 -16 -12 -6 -14 88 -21 98 -6 123 -14
97 -30 -7 -4 -162 -35 -177 -35 -2 0 -3 -6 -3 -14 0 -12 17 -14 105 -9 74 4
105 3 105 -5 0 -18 -35 -32 -116 -48 -42 -7 -78 -14 -80 -14 -2 0 -4 -7 -4
-15 0 -12 18 -15 100 -15 143 0 130 -20 -32 -50 -32 -7 -58 -15 -58 -20 0 -5
45 -12 100 -15 81 -6 98 -10 90 -21 -6 -7 -41 -16 -78 -20 -141 -14 -146 -40
-9 -50 99 -8 120 -20 50 -29 -104 -13 -137 -20 -140 -32 -4 -12 9 -17 71 -28
29 -5 36 -9 25 -16 -8 -5 -26 -9 -41 -9 -31 0 -58 -9 -58 -20 0 -4 19 -10 43
-14 60 -10 95 -27 101 -51 10 -35 6 -289 -4 -305 -7 -11 -10 1 -10 41 0 31 -3
104 -7 163 l-6 108 -66 -7 c-36 -4 -74 -11 -84 -17 -29 -15 -47 -71 -47 -145
0 -72 -9 -74 -30 -8 -7 22 -23 59 -35 82 -13 23 -31 66 -40 95 -40 121 -167
345 -271 478 -37 48 -43 62 -47 115 -2 33 3 89 10 125 12 56 16 95 26 225 0
11 -2 37 -6 58 -8 35 -7 37 18 37 18 0 25 5 25 19 0 11 -5 23 -10 26 -15 9
-12 25 5 25 8 0 15 -5 15 -12 0 -6 3 -9 6 -6 11 11 -17 50 -32 44 -9 -4 -14 2
-14 17 0 48 11 67 39 67 15 0 36 6 46 14 19 14 19 15 -5 25 -29 13 -345 90
-516 125 -371 78 -914 166 -1022 166 -109 0 -135 -27 -147 -150 -12 -127 0
-116 -126 -124 -130 -8 -310 -37 -435 -71 -51 -14 -100 -25 -110 -25 -10 0
-41 -11 -69 -24 -27 -14 -111 -54 -186 -90 -75 -36 -191 -102 -258 -148 -67
-46 -140 -92 -161 -103 -22 -11 -65 -43 -96 -70 -32 -28 -66 -55 -78 -61 -23
-14 -18 -15 -246 69 l-165 61 -139 0 -140 1 -18 -31 c-42 -72 -42 -278 0 -334
23 -30 70 -50 80 -33 5 8 19 8 54 -1 57 -14 62 -19 50 -43 -6 -11 -7 -25 -2
-34 6 -11 -1 -29 -23 -62 -18 -25 -34 -47 -37 -47 -3 0 -1 34 4 75 8 63 13 75
30 78 12 2 0 5 -26 6 -39 1 -50 -3 -62 -21 -17 -29 -102 -558 -110 -691 -4
-55 -12 -113 -19 -130 -8 -18 -14 -51 -16 -75 -3 -55 11 -60 106 -38 41 10 77
15 80 12 11 -10 -57 -196 -118 -325 -33 -68 -57 -126 -55 -129 8 -7 215 56
325 100 106 42 181 92 224 150 32 43 57 112 101 283 21 77 42 155 47 173 l11
32 66 -1 c114 -1 113 1 28 -127 -128 -193 -251 -473 -272 -621 -3 -25 -12 -68
-20 -96 -16 -60 -31 -258 -29 -375 3 -112 20 -273 33 -296 5 -11 12 -45 15
-77 3 -32 14 -77 25 -100 11 -23 22 -59 25 -80 3 -21 19 -65 36 -97 16 -33 32
-74 36 -90 4 -17 22 -51 41 -75 19 -25 34 -50 34 -55 0 -18 38 -86 67 -120 15
-19 33 -44 38 -57 21 -49 151 -193 278 -308 124 -112 165 -146 199 -163 18
-10 49 -29 68 -43 49 -36 222 -127 283 -149 29 -10 81 -28 117 -41 36 -12 81
-28 100 -36 19 -8 118 -29 220 -46 l185 -30 185 11 c210 13 334 36 503 92 450
150 815 461 1047 893 29 54 59 101 66 104 7 3 47 -3 89 -13 l76 -18 53 27 c29
15 60 27 69 27 8 0 17 4 19 10 2 7 34 7 93 1 50 -4 80 -9 68 -10 -28 -1 -29
-12 -4 -35 10 -10 24 -37 30 -60 14 -57 65 -131 178 -258 106 -119 132 -153
233 -301 76 -114 98 -161 107 -238 5 -42 3 -48 -18 -60 -13 -7 -56 -13 -96
-13 -66 -1 -74 1 -102 28 -27 26 -35 28 -58 20 -15 -5 -34 -22 -43 -37 -14
-27 -14 -29 17 -55 17 -15 42 -35 55 -44 l23 -17 -32 -1 c-18 0 -33 -4 -33 -9
0 -10 74 -21 146 -21 30 0 54 -4 54 -8 0 -16 -56 -86 -95 -120 -55 -49 -119
-73 -207 -79 -76 -6 -78 -5 -113 26 -48 42 -69 40 -94 -7 -19 -36 -6 -67 41
-96 l43 -25 -34 -1 c-27 0 -32 -3 -23 -12 27 -27 373 -21 475 8 29 9 20 27
-10 20 l-28 -7 30 25 c17 15 37 23 48 20 9 -3 17 0 17 6 0 6 -5 8 -12 4 -7 -4
8 19 33 52 25 32 68 92 94 131 26 40 55 73 63 73 11 0 12 3 4 13 -14 17 0 39
79 124 65 70 126 167 164 262 26 62 26 65 8 82 -10 10 -41 23 -68 28 -39 7
-57 18 -83 48 -35 39 -247 381 -241 388 2 2 254 -1 559 -7 470 -8 591 -13 790
-34 418 -44 604 -57 666 -49 74 10 65 12 -136 25 -91 5 -244 19 -340 30 -331
39 -515 59 -625 70 -158 15 -440 57 -581 85 -67 14 -132 25 -145 25 -19 0 -21
2 -9 10 13 8 12 11 -5 24 -25 18 -32 8 -41 -56 -8 -58 -34 -68 -34 -13 0 29
-4 35 -21 35 -14 0 -24 -10 -32 -30 -16 -43 -30 -37 -22 10 6 37 5 40 -22 45
-15 4 -37 8 -48 11 -11 3 -156 9 -322 14 -165 5 -321 14 -345 19 -130 30 -267
63 -298 71 -19 5 -42 9 -50 9 -40 2 -144 21 -230 44 -52 14 -138 32 -190 41
-121 21 -190 35 -215 45 -11 5 -69 18 -130 30 -60 12 -130 27 -155 32 -25 6
-92 19 -150 30 -58 11 -123 24 -145 29 -22 4 -69 14 -105 20 -36 7 -75 19 -88
27 -13 8 -30 12 -37 9 -9 -3 -15 7 -20 30 -7 40 -21 37 -30 -6 -4 -17 -10 -28
-13 -26 -4 2 -24 7 -44 10 -20 3 -61 17 -90 30 -60 28 -279 114 -444 175
l-112 40 -103 -42 c-57 -23 -113 -48 -124 -56 l-20 -13 20 8 c11 3 31 9 44 12
21 4 23 2 18 -17 -3 -12 -38 -66 -79 -121 -62 -84 -77 -99 -101 -100 -37 0
-309 30 -318 36 -8 4 -49 170 -49 196 0 10 39 30 110 58 61 24 110 47 110 52
0 11 8 13 -103 -27 -54 -19 -104 -35 -112 -35 -9 0 -15 14 -17 37 -2 28 -8 39
-22 41 -16 4 -18 0 -12 -32 4 -23 3 -36 -4 -36 -5 0 -10 15 -10 33 0 53 -10
77 -33 77 -19 0 -20 -4 -14 -102 20 -314 152 -610 373 -838 109 -113 224 -198
359 -267 83 -42 97 -46 115 -35 18 11 21 10 30 -12 7 -21 23 -27 117 -49 140
-33 225 -42 253 -27 16 9 25 9 36 -1 11 -9 46 -10 132 -6 161 9 303 43 434
104 73 34 90 53 49 53 -22 0 -64 50 -193 230 -54 74 -98 144 -98 155 0 26 20
146 26 156 2 4 61 -12 130 -35 l126 -42 35 -84 c73 -179 105 -275 99 -302 -6
-33 12 -38 37 -10 14 16 12 24 -28 107 -50 106 -111 263 -103 270 6 7 177 -51
195 -67 27 -22 75 -141 69 -170 -7 -35 11 -36 26 -2 11 23 8 34 -22 89 -19 35
-32 66 -30 69 3 3 32 -6 65 -20 70 -28 88 -30 105 -9 10 13 9 15 -11 15 -13 0
-59 12 -102 26 l-79 26 -44 91 c-24 50 -44 97 -44 104 0 17 14 14 205 -48 142
-46 201 -60 180 -41 -6 5 -71 28 -145 52 -247 79 -164 64 234 -41 35 -9 38
-13 32 -37 -4 -15 -8 -38 -10 -52 -3 -26 -81 -155 -119 -197 -11 -12 -24 -20
-29 -17 -5 3 -7 0 -6 -7 2 -7 -6 -17 -18 -23 -11 -6 -19 -17 -16 -24 2 -6 -4
-12 -12 -12 -9 0 -20 -10 -25 -22 -14 -35 -77 -92 -92 -83 -7 5 -10 4 -5 -3 8
-13 -62 -73 -122 -103 -26 -13 -48 -27 -50 -31 -6 -14 -72 -49 -81 -44 -5 3
-11 -1 -14 -9 -3 -7 -22 -17 -41 -21 -20 -3 -36 -11 -36 -16 0 -6 -7 -7 -16
-4 -8 3 -12 2 -9 -4 3 -6 5 -10 3 -10 -2 0 -18 -4 -36 -9 -23 -7 -30 -7 -26 1
5 8 1 9 -12 3 -113 -46 -263 -67 -499 -69 -110 0 -220 2 -245 7 -25 4 -70 12
-102 17 -114 20 -287 96 -427 187 -88 59 -246 191 -237 200 3 3 13 0 22 -8 25
-21 -40 84 -92 148 -133 163 -236 389 -284 625 -11 56 -25 111 -30 120 -6 10
-10 28 -10 42 0 13 -7 41 -16 62 -43 104 33 470 143 687 71 142 264 378 340
417 15 8 32 20 36 27 10 15 84 36 98 27 7 -4 4 -13 -6 -25 -16 -17 -16 -18 9
-25 14 -3 40 -1 57 5 75 26 74 4 -1 -34 -59 -30 -238 -198 -246 -232 -4 -13
-15 -28 -25 -34 -52 -27 -186 -279 -174 -326 3 -15 -1 -25 -14 -32 -22 -12
-57 -131 -77 -265 -14 -92 -12 -106 11 -106 7 0 15 -5 17 -10 2 -6 19 -2 41 9
21 11 90 32 153 47 108 27 116 27 125 11 11 -19 34 -23 44 -6 8 12 -22 38 -44
39 -26 0 -251 113 -251 126 0 6 -7 14 -15 18 -28 11 -8 116 22 116 18 0 74
-44 176 -138 115 -104 99 -69 -20 47 -91 89 -114 117 -123 152 -10 34 -9 49 4
78 8 20 17 47 18 61 2 18 12 27 38 36 127 43 148 47 321 51 l175 5 17 30 c24
42 21 55 -6 30 -13 -12 -26 -22 -28 -22 -13 0 -106 101 -98 106 17 10 -1 22
-42 29 -33 6 -43 13 -56 40 -21 45 -11 79 35 110 37 25 37 25 53 6 9 -11 24
-52 34 -91 19 -77 43 -111 31 -44 -4 21 -9 71 -12 109 -9 106 -1 112 143 107
54 -2 66 -6 93 -32 37 -36 57 -39 35 -6 -16 25 -16 25 22 28 31 2 39 7 41 26
6 42 22 22 22 -28 0 -39 4 -52 17 -57 26 -9 73 -43 73 -52 0 -5 -18 -11 -40
-14 -48 -6 -70 -22 -70 -50 0 -15 -3 -18 -11 -10 -13 13 -55 -9 -113 -60 l-38
-32 30 -22 c26 -19 32 -20 48 -8 18 13 18 14 -3 8 -19 -4 -23 -1 -23 20 0 30
37 48 51 26 14 -23 10 -39 -17 -64 -23 -21 -24 -26 -13 -47 l13 -23 6 24 c7
32 28 38 32 10 2 -15 13 -25 32 -30 16 -5 40 -18 53 -31 22 -21 23 -23 7 -35
-30 -22 -70 -16 -93 15 -16 21 -20 23 -21 9 0 -10 -11 -22 -25 -27 -15 -6 -25
-17 -25 -29 0 -50 -8 -52 -73 -19 -76 37 -73 34 -57 53 10 12 10 19 2 27 -9 9
-12 8 -12 -6 0 -12 -5 -16 -18 -12 -11 4 -36 -5 -63 -22 -24 -16 -66 -35 -92
-42 -59 -16 -49 -30 24 -33 50 -2 54 0 52 20 -1 11 4 27 12 33 20 17 20 -5 -1
-77 -16 -54 -16 -55 8 -87 12 -18 72 -84 131 -146 126 -133 90 -121 418 -140
305 -18 419 -26 425 -32 3 -3 -2 -31 -11 -62 -16 -56 -36 -71 -61 -46 -14 14
-56 0 -50 -17 3 -8 6 -21 6 -29 0 -10 9 -14 27 -12 l28 3 -3 -90 c-3 -108 11
-98 32 25 17 95 69 238 74 202 4 -26 8 -27 28 -8 7 8 22 12 31 10 10 -2 119
-28 243 -58 124 -30 268 -62 320 -71 234 -41 410 -79 475 -101 163 -58 413
-124 598 -159 191 -37 198 -39 193 -60 -8 -33 33 -57 174 -99 69 -21 157 -48
197 -62 81 -27 87 -28 77 -12 -5 7 -2 9 7 6 8 -3 66 -15 129 -28 63 -13 120
-28 125 -34 6 -7 18 -10 29 -8 12 3 17 -1 14 -10 -6 -16 -113 -13 -203 7 -33
7 -89 16 -125 19 -54 5 -62 4 -46 -7 10 -6 30 -22 44 -35 14 -12 35 -24 46
-27 12 -2 66 -13 121 -25 55 -11 109 -21 120 -21 11 0 114 -15 230 -34 271
-44 364 -56 805 -105 201 -22 427 -47 503 -55 75 -8 154 -15 175 -14 l37 1
-44 20 c-41 19 -86 26 -439 73 -62 9 -123 22 -136 30 -34 22 -172 40 -202 26
-57 -25 -371 0 -515 42 -48 14 -103 29 -123 32 -38 8 -46 19 -20 29 28 11 84
6 238 -18 83 -13 201 -30 261 -36 128 -14 386 -47 705 -90 444 -59 547 -39
740 146 82 79 126 111 137 101 10 -11 -59 -124 -113 -184 -31 -35 -51 -63 -45
-63 5 0 31 25 57 55 26 30 56 55 66 55 9 0 29 12 43 27 41 45 28 14 -25 -59
-27 -37 -46 -68 -41 -68 12 0 83 81 119 135 31 47 69 151 59 161 -3 3 -26 9
-52 11 -25 3 -45 10 -45 14 0 11 94 12 104 2 8 -8 12 -9 59 -11 15 -1 27 -8
27 -15 0 -9 10 -12 30 -9 29 4 43 -12 18 -20 -13 -5 30 -68 46 -68 6 0 25 9
43 20 24 14 34 29 38 57 4 21 7 41 8 45 1 4 34 33 72 65 39 32 94 92 123 133
33 47 62 76 75 78 27 5 57 30 57 49 0 18 -37 90 -66 129 -26 33 -30 50 -14 56
14 4 30 169 19 190 -5 9 -9 26 -9 37 0 11 -9 25 -20 31 -27 15 -25 37 9 89 16
24 37 61 47 82 16 38 16 40 -2 74 -10 20 -29 38 -42 42 -13 3 -35 23 -49 45
-19 32 -23 48 -18 75 7 40 -7 63 -39 63 -12 0 -38 12 -57 26 -19 14 -51 34
-72 45 -61 32 -77 53 -77 103 0 25 5 48 11 52 6 3 8 15 5 27 -6 24 9 54 117
245 57 101 86 142 99 142 10 0 18 6 18 14 0 19 85 168 108 189 10 9 43 21 73
27 68 13 215 58 251 76 18 9 31 28 39 54 12 38 19 44 122 97 60 32 112 64 115
72 3 8 -2 36 -11 62 -22 61 -22 61 16 57 29 -3 32 -7 38 -43 11 -83 44 -105
155 -105 75 0 94 -6 94 -31 0 -10 -56 -80 -125 -154 -68 -74 -144 -161 -168
-193 -197 -260 -355 -649 -388 -957 -14 -132 -7 -383 16 -543 18 -126 53 -235
155 -482 82 -196 118 -317 128 -425 l7 -80 50 63 c28 35 66 95 85 134 l36 69
38 -103 c135 -369 400 -703 738 -928 140 -94 219 -135 383 -201 136 -54 136
-53 -45 -64 -115 -7 -202 -17 -197 -21 6 -6 351 -32 575 -44 252 -12 768 -13
922 0 276 22 380 33 380 40 0 8 -227 30 -304 30 -27 0 -47 3 -43 6 3 4 39 17
79 31 117 38 328 145 445 225 136 92 353 301 448 431 232 320 348 651 362
1037 12 318 -42 583 -176 865 -166 349 -400 609 -737 817 -284 175 -569 264
-925 286 l-114 7 2 65 c2 36 5 71 8 78 6 16 229 16 385 0 63 -7 156 -13 205
-13 87 0 93 2 170 43 90 48 175 107 175 122 0 6 -10 15 -22 20 -13 5 -98 41
-190 79 -223 95 -278 114 -448 156 -383 94 -773 82 -1183 -36 l-68 -20 -115
101 c-62 56 -114 104 -114 105 0 2 9 20 21 40 29 49 21 63 -42 67 l-53 3 -38
70 c-21 39 -38 73 -38 77 0 4 33 -8 73 -26 39 -18 93 -38 120 -46 26 -7 50
-17 53 -22 3 -5 20 -6 37 -3 18 3 55 1 82 -5 28 -7 62 -12 77 -11 25 0 26 -2
16 -19 -17 -26 7 -57 30 -38 8 7 25 11 38 10 18 -3 24 1 24 15 0 11 5 24 11
30 8 8 8 13 0 18 -7 4 1 15 21 29 41 27 58 60 58 112 0 32 4 43 19 47 40 10
70 250 52 421 -12 114 -81 340 -114 369 -16 14 -38 17 -131 16 -150 0 -284
-38 -440 -123 -63 -35 -85 -42 -99 -34 -37 20 -150 -15 -191 -61 -20 -22 -19
-43 7 -101 13 -30 13 -38 2 -54 -8 -10 -18 -15 -24 -12 -6 4 -40 63 -76 131
-86 163 -90 167 -139 158 -26 -4 -40 -12 -44 -25 -5 -22 -51 -48 -83 -48 -17
0 -19 3 -10 13 7 10 7 17 0 24 -8 8 -5 13 11 18 12 4 27 2 33 -4 17 -17 37
-13 37 8 0 29 78 92 105 85 31 -8 53 21 37 47 -7 11 -10 24 -7 29 5 8 -24 49
-98 143 -30 37 -50 46 -62 28z m-199 -206 c-21 -19 -43 -32 -49 -28 -13 8 51
63 73 63 9 -1 0 -14 -24 -35z m112 -92 c2 -8 -5 -13 -17 -13 -12 0 -21 6 -21
16 0 18 31 15 38 -3z m1253 -13 c10 -36 10 -702 0 -718 -5 -8 -23 -12 -47 -10
-37 3 -39 5 -46 43 -4 22 -7 70 -7 108 l-1 67 30 0 30 0 0 109 c0 63 -4 112
-10 116 -5 3 -10 14 -10 24 0 10 -9 21 -19 24 -17 4 -20 19 -26 120 -4 64 -5
124 -1 132 4 12 17 15 53 13 41 -3 48 -6 54 -28z m-271 -15 c0 -10 -165 -83
-234 -104 -79 -24 -76 -24 -76 -12 0 16 96 71 166 95 62 22 144 34 144 21z
m-795 -15 c-3 -5 -11 -10 -16 -10 -6 0 -7 5 -4 10 3 6 11 10 16 10 6 0 7 -4 4
-10z m-288 -64 c-9 -7 -17 -18 -17 -25 0 -15 -23 -14 -38 1 -18 18 -14 28 11
28 12 0 29 4 37 10 21 13 28 1 7 -14z m-124 -34 c-7 -16 -9 -14 -17 23 -7 28
-6 29 7 10 8 -10 12 -25 10 -33z m1524 16 c-3 -7 -5 -2 -5 12 0 14 2 19 5 13
2 -7 2 -19 0 -25z m-1602 2 c3 -5 1 -10 -4 -10 -6 0 -11 5 -11 10 0 6 2 10 4
10 3 0 8 -4 11 -10z m203 -72 c-5 -34 -44 -37 -50 -4 -5 23 -2 26 24 26 25 0
29 -4 26 -22z m-98 -38 c0 -5 -7 -10 -15 -10 -8 0 -15 5 -15 10 0 6 7 10 15
10 8 0 15 -4 15 -10z m1519 -9 c9 -6 12 -23 8 -62 -16 -159 -16 -228 0 -238
10 -5 14 -15 10 -25 -4 -10 -11 -14 -17 -11 -6 4 -10 -7 -10 -27 0 -25 -3 -29
-10 -18 -11 17 -14 390 -2 390 4 0 13 -4 21 -9z m-1289 -101 c0 -5 -2 -10 -4
-10 -3 0 -8 5 -11 10 -3 6 -1 10 4 10 6 0 11 -4 11 -10z m-1120 -60 c-20 -13
-40 -13 -40 0 0 6 12 10 28 10 21 0 24 -2 12 -10z m104 -23 c8 -12 7 -20 -2
-29 -14 -14 -17 -11 -26 25 -8 32 9 34 28 4z m-61 -11 c7 -19 -12 -36 -41 -36
-13 0 -31 -4 -41 -9 -10 -6 -44 -7 -77 -4 -46 5 -54 8 -34 14 14 4 55 7 92 8
37 1 70 6 73 11 3 6 -4 10 -17 10 -18 0 -20 2 -8 10 22 14 47 12 53 -4z m1984
-43 c-19 -19 -57 -1 -57 27 0 26 16 26 23 -1 7 -27 31 -20 36 12 l5 24 4 -24
c2 -13 -3 -30 -11 -38z m-952 -3 c25 -16 39 -36 60 -92 26 -73 53 -234 40
-246 -12 -12 -49 45 -115 177 -57 116 -63 132 -52 155 14 31 25 32 67 6z m209
-219 c59 -112 74 -147 65 -157 -26 -32 -47 -15 -80 64 -41 99 -69 187 -69 220
0 14 2 23 4 21 2 -2 38 -69 80 -148z m-1459 -7 c-66 -7 -155 -20 -198 -28 -87
-18 -163 -21 -171 -7 -3 5 56 16 132 26 75 9 144 18 152 20 8 1 58 3 110 3
l95 0 -120 -14z m1382 -106 c-2 -13 -4 -5 -4 17 -1 22 1 32 4 23 2 -10 2 -28
0 -40z m-488 33 c9 -6 10 -10 2 -16 -15 -8 -41 1 -41 15 0 12 20 13 39 1z
m-6264 -71 c-86 -11 -155 -11 -130 0 11 5 58 8 105 8 l85 -1 -60 -7z m6276
-70 c6 0 19 -21 31 -46 18 -42 20 -62 16 -178 -4 -108 -9 -145 -31 -208 -37
-109 -181 -370 -223 -408 -54 -47 -70 -39 -33 15 26 39 51 85 45 85 -2 0 -20
-25 -40 -55 -20 -30 -41 -57 -48 -61 -16 -10 -10 0 75 129 42 64 77 124 77
132 0 7 4 16 9 19 4 3 16 27 26 53 10 26 26 66 35 88 30 70 45 175 44 325 0
80 2 137 4 128 2 -10 8 -18 13 -18z m1539 -21 c0 -5 -7 -9 -15 -9 -15 0 -20
12 -9 23 8 8 24 -1 24 -14z m-998 -40 c31 -23 85 -127 90 -176 6 -57 -23 -29
-76 76 -70 136 -70 140 -14 100z m123 -29 c3 -6 3 -20 -1 -32 -6 -21 -7 -21
-20 -3 -8 10 -14 25 -14 32 0 15 26 18 35 3z m-5268 -72 c-3 -7 -5 -2 -5 12 0
14 2 19 5 13 2 -7 2 -19 0 -25z m5933 -215 c0 -7 -2 -13 -4 -13 -2 0 -11 -3
-20 -6 -10 -4 -24 10 -45 48 -17 29 -31 57 -31 61 0 5 23 -11 50 -34 28 -23
50 -48 50 -56z m-9267 -20 c82 -30 171 -59 198 -66 l50 -13 -23 -30 c-12 -16
-48 -59 -79 -95 -48 -57 -122 -163 -207 -299 l-22 -35 6 85 c3 47 7 91 10 98
4 16 -1 15 -36 -3 -36 -19 -36 -22 -8 -45 21 -17 22 -20 10 -77 -6 -33 -12
-70 -12 -84 0 -26 -45 -129 -56 -129 -3 0 -4 9 -1 19 5 21 -14 43 -46 54 -16
6 -17 15 -12 79 8 76 25 118 50 118 12 0 15 14 15 64 0 35 3 76 6 92 4 22 -2
40 -25 74 -26 38 -31 55 -31 107 0 56 2 62 23 65 16 2 23 11 25 30 3 22 -2 29
-22 34 -14 3 -23 10 -20 15 7 12 35 5 207 -58z m5207 -93 c0 -5 -4 -10 -10
-10 -5 0 -10 5 -10 10 0 6 5 10 10 10 6 0 10 -4 10 -10z m-2117 -165 c5 -11
-17 4 -51 34 -34 29 -62 57 -62 63 0 13 99 -72 113 -97z m4899 28 c-11 -21
-22 -50 -26 -65 -3 -16 -13 -28 -21 -28 -8 0 -33 -29 -55 -65 -36 -56 -90
-105 -116 -105 -5 0 20 31 56 68 36 38 90 109 120 159 54 89 79 111 42 36z
m-6908 -33 c85 -187 85 -184 16 -210 -138 -53 -335 -169 -479 -283 l-84 -67
-82 0 c-96 0 -175 9 -175 21 0 16 125 165 209 249 87 86 218 193 301 245 76
48 224 125 241 125 11 0 29 -28 53 -80z m4249 -3 c21 -90 21 -97 0 -97 -19 0
-103 -30 -418 -150 -126 -48 -254 -91 -283 -95 -40 -5 -57 -13 -69 -31 -8 -13
-21 -24 -29 -24 -7 0 -49 -28 -94 -61 l-81 -61 -23 21 c-14 13 -35 21 -58 21
-48 0 -60 18 -56 82 3 51 4 53 38 64 47 15 51 34 7 34 -19 0 -40 7 -47 15 -16
19 -13 23 35 33 21 4 40 13 43 20 3 9 -20 12 -87 12 -130 0 -121 26 17 50 75
14 96 30 38 30 -61 0 -156 13 -151 20 6 10 92 25 324 56 102 14 231 32 286 39
55 8 120 15 145 15 25 0 63 5 85 11 22 7 110 24 195 39 85 15 157 28 160 29 3
0 13 -32 23 -72z m-3018 43 c17 -18 16 -21 -12 -72 -35 -62 -46 -67 -61 -33
-10 22 -8 33 13 75 14 28 29 50 34 50 4 0 16 -9 26 -20z m7249 -55 c42 -70 47
-91 29 -107 -14 -11 -15 -10 -9 8 4 14 1 26 -9 34 -13 11 -14 10 -9 -4 11 -28
-12 -18 -26 12 -57 123 -39 165 24 57z m-9757 -52 c-3 -10 -5 -4 -5 12 0 17 2
24 5 18 2 -7 2 -21 0 -30z m2751 3 c63 -32 192 -125 276 -200 79 -69 386 -425
386 -447 0 -3 -51 43 -112 103 -175 169 -395 312 -613 399 -44 17 -83 33 -87
35 -6 4 40 92 64 122 15 17 33 15 86 -12z m7622 -45 c0 -90 -6 -97 -107 -110
-48 -6 -137 -22 -198 -36 -60 -14 -117 -25 -126 -25 -22 0 -50 69 -38 92 12
22 98 53 244 88 162 39 156 38 193 39 32 1 32 1 32 -48z m-2075 5 c22 -33 5
-66 -33 -66 -33 0 -52 16 -52 45 0 48 58 62 85 21z m1525 -26 c0 -5 -5 -10
-11 -10 -5 0 -7 5 -4 10 3 6 8 10 11 10 2 0 4 -4 4 -10z m-9898 -162 c-5 -41
-12 -46 -32 -23 -11 13 -9 20 10 40 13 14 24 24 25 22 1 -1 0 -19 -3 -39z
m6477 -9 c32 -11 40 -26 19 -34 -17 -6 -91 20 -96 34 -5 14 36 14 77 0z m-599
-4 c0 -3 -16 -20 -36 -38 -46 -39 -64 -82 -64 -147 l0 -51 -56 3 c-54 3 -57 5
-80 43 l-24 41 26 38 c15 21 30 50 33 65 6 22 16 28 62 38 57 12 139 17 139 8z
m830 -5 c0 -5 -4 -10 -10 -10 -5 0 -10 5 -10 10 0 6 5 10 10 10 6 0 10 -4 10
-10z m3180 -14 c-20 -19 -60 -30 -60 -17 0 13 30 30 55 31 17 0 17 -2 5 -14z
m-5490 -21 c7 -9 11 -17 9 -19 -7 -6 -99 18 -99 26 0 15 77 8 90 -7z m1758
-11 c4 -29 -41 -38 -70 -14 -29 23 -15 42 30 38 29 -2 38 -8 40 -24z m1622
-15 c-7 -11 -14 -19 -16 -16 -7 7 7 37 17 37 6 0 5 -9 -1 -21z m-1860 1 c0
-19 -48 -60 -70 -60 -27 0 -25 16 5 45 24 25 65 34 65 15z m50 -11 c0 -5 -7
-9 -15 -9 -15 0 -20 12 -9 23 8 8 24 -1 24 -14z m520 -3 c29 -9 37 -18 44 -48
11 -44 2 -60 -19 -32 -14 19 -14 19 -15 -2 0 -12 10 -28 23 -37 34 -23 13 -32
-76 -31 -92 1 -344 28 -354 37 -13 14 20 63 55 79 34 16 37 16 55 0 32 -29 87
-21 143 20 52 39 64 40 144 14z m185 -24 c-8 -8 -35 20 -35 37 1 12 5 11 21
-8 11 -13 17 -26 14 -29z m-85 -33 c0 -11 -4 -17 -10 -14 -5 3 -10 13 -10 21
0 8 5 14 10 14 6 0 10 -9 10 -21z m-1230 -4 c0 -8 -4 -15 -10 -15 -5 0 -10 7
-10 15 0 8 5 15 10 15 6 0 10 -7 10 -15z m627 -17 c-3 -8 -6 -5 -6 6 -1 11 2
17 5 13 3 -3 4 -12 1 -19z m-5899 -14 c7 -5 -19 -74 -28 -74 -4 0 -10 12 -12
28 -3 15 -9 35 -13 45 -7 16 -4 17 21 11 16 -4 31 -8 32 -10z m4179 -96 c-2
-24 -4 -7 -4 37 0 44 2 63 4 43 2 -21 2 -57 0 -80z m1693 102 c0 -5 -2 -10 -4
-10 -3 0 -8 5 -11 10 -3 6 -1 10 4 10 6 0 11 -4 11 -10z m-2605 -30 l20 -25
-22 19 c-13 11 -23 24 -23 29 0 6 1 8 3 6 1 -2 11 -15 22 -29z m1970 -18 c-3
-3 -18 7 -33 23 l-27 28 33 -23 c18 -12 31 -25 27 -28z m576 28 c42 0 27 -17
-22 -25 -42 -7 -58 2 -59 32 0 9 7 10 26 3 14 -6 39 -10 55 -10z m837 2 c2 -7
-6 -12 -17 -12 -21 0 -27 11 -14 24 9 9 26 2 31 -12z m-2140 -35 c3 -16 -2
-18 -34 -15 -40 3 -57 23 -27 31 33 9 58 2 61 -16z m4915 9 c1 -4 -30 -31 -70
-59 -61 -42 -75 -48 -88 -37 -24 20 -18 46 17 75 22 19 39 25 57 22 14 -3 35
-1 46 3 23 10 36 8 38 -4z m-4238 -36 c12 -19 -12 -10 -31 11 -19 22 -19 22 3
10 12 -6 25 -16 28 -21z m-230 -17 c-9 -21 -23 -48 -31 -60 -23 -36 -18 -121
10 -168 20 -32 22 -44 13 -65 -5 -14 -13 -45 -16 -70 l-6 -45 -45 3 c-37 2
-51 9 -76 37 -17 19 -37 52 -44 74 -12 37 -11 46 13 112 37 98 94 198 120 209
12 5 34 9 50 9 l27 1 -15 -37z m929 -47 c-2 -6 3 -29 10 -51 13 -35 13 -41 0
-52 -12 -9 -13 -16 -4 -32 15 -30 28 -26 38 11 4 17 14 34 22 36 9 3 11 -1 7
-12 -4 -10 -7 -38 -7 -62 l0 -44 -48 0 c-27 0 -55 6 -64 13 -33 25 -99 230
-81 248 5 4 22 9 38 11 22 3 38 -4 62 -25 17 -16 30 -34 27 -41z m286 59 c74
-8 162 -15 195 -15 82 0 89 -6 80 -69 -4 -28 -14 -58 -22 -66 -25 -26 -74 -18
-110 17 -29 28 -35 30 -58 20 -39 -18 -62 -66 -69 -144 -7 -64 -5 -72 14 -93
21 -22 24 -23 60 -10 30 10 47 11 74 3 44 -14 45 -23 5 -37 -39 -13 -37 -45 4
-49 26 -3 27 -5 27 -62 0 -41 4 -61 14 -67 19 -11 76 -117 76 -142 0 -23 -45
-61 -71 -61 -11 0 -19 3 -19 8 0 4 -23 32 -51 62 -28 30 -46 47 -39 37 20 -28
6 -30 -20 -2 -26 28 -37 45 -80 132 -29 59 -30 63 -15 87 15 22 15 27 1 55 -9
16 -16 45 -16 64 0 31 -2 34 -25 29 -16 -3 -25 -11 -25 -23 0 -24 -5 -24 -46
2 -33 20 -34 23 -34 84 0 57 -13 111 -31 125 -3 3 -9 19 -13 35 l-6 30 24 -27
c14 -16 27 -28 29 -28 12 0 0 61 -16 77 -23 27 -21 43 6 43 12 0 83 -7 157
-15z m645 -125 c77 -93 84 -105 65 -108 -34 -5 -50 5 -50 32 0 48 -9 56 -65
56 -44 0 -54 3 -58 20 -3 12 -14 20 -26 20 -25 0 -25 1 -6 47 8 19 15 45 15
56 0 21 0 21 19 2 10 -11 58 -67 106 -125z m-3444 58 c46 -57 29 -46 -22 15
-24 28 -36 46 -26 38 10 -8 31 -31 48 -53z m2349 -8 c7 -27 10 -55 8 -61 -2
-6 -28 15 -56 46 -54 59 -56 70 -12 77 35 6 47 -6 60 -62z m220 40 c0 -16 -4
-30 -10 -30 -11 0 -14 43 -3 53 11 12 13 8 13 -23z m-805 0 c3 -6 -1 -7 -9 -4
-18 7 -21 14 -7 14 6 0 13 -4 16 -10z m-127 -55 c-4 -27 -35 -31 -43 -6 -3 11
-1 30 6 42 11 22 12 22 26 3 7 -10 12 -28 11 -39z m647 -31 l58 -66 0 -76 c-1
-61 -7 -89 -27 -133 -38 -82 -50 -90 -112 -72 -43 12 -52 19 -60 46 -6 21 -16
33 -30 35 -12 2 -29 11 -38 21 -14 16 -11 22 47 82 52 53 66 74 80 125 9 33
17 70 17 82 0 12 2 22 4 22 2 0 30 -30 61 -66z m3575 23 c0 -5 -53 -64 -117
-131 -65 -67 -147 -163 -183 -214 -118 -167 -230 -398 -275 -566 -11 -38 -21
-64 -23 -58 -10 30 91 368 138 462 70 139 211 330 353 475 74 76 79 79 92 61
8 -11 15 -24 15 -29z m-5053 -9 c-3 -8 -6 -5 -6 6 -1 11 2 17 5 13 3 -3 4 -12
1 -19z m787 -98 c-5 -24 -6 -24 -20 -6 -14 20 -19 97 -7 110 11 11 34 -76 27
-104z m299 78 c18 -18 21 -23 7 -12 -14 12 -34 26 -45 32 -11 6 -14 12 -7 12
7 0 27 -15 45 -32z m5487 -14 c309 -51 557 -178 797 -408 87 -83 122 -105 71
-46 -13 14 -3 6 20 -19 177 -186 315 -492 353 -786 18 -138 7 -367 -24 -490
-48 -189 -121 -358 -218 -502 -49 -72 -69 -93 -69 -73 0 6 -5 8 -11 4 -8 -4
-7 -9 2 -14 9 -6 -3 -25 -42 -68 -63 -69 -197 -189 -242 -216 -38 -23 -29 -13
38 40 74 58 183 163 207 198 11 17 -11 0 -48 -39 -67 -67 -222 -191 -254 -203
-8 -3 -22 -10 -30 -17 -23 -19 -285 -121 -380 -149 -319 -91 -670 -69 -990 63
-41 17 -87 31 -101 31 -14 0 -34 7 -45 15 -10 8 -27 15 -37 15 -10 0 -15 5
-12 11 4 6 14 8 22 5 8 -3 11 -1 8 5 -4 5 -15 7 -25 4 -11 -4 -26 1 -37 12
-23 23 -118 74 -125 68 -3 -3 -11 1 -18 10 -7 8 -9 15 -5 15 4 0 2 7 -5 15 -7
8 -21 15 -31 15 -11 0 -19 5 -19 10 0 6 -8 14 -17 17 -26 10 -161 154 -174
186 -6 15 -15 27 -20 27 -29 0 -165 256 -213 402 -57 168 -80 360 -66 545 12
161 12 160 89 195 197 91 319 138 352 138 33 0 280 -43 322 -56 38 -12 37 -37
-1 -155 l-37 -114 -70 -37 c-39 -21 -80 -38 -92 -38 -22 0 -60 20 -256 137
-70 42 -111 73 -117 89 -14 35 -30 29 -30 -10 0 -32 4 -36 73 -71 127 -65 287
-158 287 -167 0 -5 -11 -13 -24 -19 -18 -9 -57 -6 -166 11 -149 24 -180 38
-180 79 0 11 -4 23 -10 26 -15 10 -12 -172 5 -294 63 -433 342 -813 745 -1012
191 -95 388 -139 617 -139 230 0 388 33 570 120 401 190 686 561 758 983 7 43
-6 49 -41 16 -16 -15 -59 -28 -153 -46 l-130 -25 -58 32 c-158 88 -213 125
-213 141 0 10 5 21 10 24 12 8 298 41 469 55 63 5 118 13 123 18 5 5 6 16 2
26 -6 15 -8 15 -23 2 -15 -13 -100 -24 -449 -58 -62 -6 -116 -7 -120 -4 -4 4
-8 49 -10 99 l-4 92 71 76 70 76 48 -8 c266 -44 361 -63 381 -75 21 -14 22
-13 22 14 l0 28 -207 27 c-114 15 -211 31 -216 36 -4 4 11 29 35 54 l43 46
110 11 c173 18 174 18 168 38 -4 17 -8 17 -101 1 -170 -31 -168 -34 -68 76 78
84 86 96 76 115 -11 20 -13 19 -40 -22 -43 -65 -137 -176 -163 -192 -22 -14
-250 -56 -306 -56 -38 0 -40 18 -5 51 69 63 384 399 384 408 0 23 -27 8 -64
-37 -21 -26 -112 -123 -202 -215 l-164 -169 -70 74 -69 73 -1 103 0 102 53 33
c88 56 295 169 335 182 l37 13 -27 12 c-24 11 -34 7 -130 -52 -56 -36 -138
-84 -180 -107 l-78 -43 0 52 c0 64 7 77 91 171 38 42 69 82 69 88 0 6 14 11
30 11 41 0 38 10 -15 43 -63 40 -67 51 -14 42 59 -9 131 -43 225 -104 54 -36
68 -42 44 -21 -53 48 -186 133 -276 178 -180 90 -442 152 -642 152 -43 0 -61
3 -56 11 8 13 180 4 304 -17z m-9014 -43 c-22 -24 -65 -36 -79 -22 -6 6 -30
11 -54 11 -24 0 -43 5 -43 10 0 18 80 16 91 -2 5 -7 21 -4 50 10 48 24 61 21
35 -7z m113 -15 c11 -13 11 -16 -1 -16 -18 0 -68 38 -68 51 0 12 52 -14 69
-35z m3371 9 c0 -3 -7 -17 -16 -30 -23 -36 -39 -31 -17 5 15 27 33 40 33 25z
m1247 -47 c-2 -13 -4 -5 -4 17 -1 22 1 32 4 23 2 -10 2 -28 0 -40z m-1206 -4
c-11 -15 -21 -23 -21 -18 0 14 31 56 37 50 3 -3 -4 -17 -16 -32z m1039 -5 c0
-10 -12 -11 -34 -3 -9 3 -14 10 -11 14 6 10 45 1 45 -11z m4170 0 c0 -25 -39
-139 -52 -154 -9 -10 0 151 9 168 2 4 13 7 24 7 13 0 19 -7 19 -21z m199 12
c24 -5 48 -15 53 -22 10 -15 2 -526 -9 -567 -4 -18 -11 -22 -27 -18 -11 3 -61
11 -111 17 -97 12 -124 28 -166 96 -19 30 -19 40 -10 125 14 125 88 335 128
366 19 14 78 15 142 3z m-8885 -28 c14 -29 6 -73 -14 -73 -13 0 -13 13 0 26
14 14 2 42 -21 49 -26 9 -39 -2 -39 -31 0 -14 -4 -22 -10 -19 -16 10 -12 29
10 53 28 30 57 28 74 -5z m106 -38 c0 -38 -19 -80 -44 -97 -6 -4 -24 -8 -40
-8 -28 0 -28 1 -12 19 9 10 31 21 48 25 28 6 30 8 24 40 -8 43 3 94 15 74 5
-7 9 -31 9 -53z m3174 50 c4 -10 -1 -15 -14 -15 -20 0 -26 11 -13 23 10 11 20
8 27 -8z m5240 -89 c-4 -42 -11 -76 -15 -76 -10 0 -12 130 -3 155 15 38 25 -6
18 -79z m-4082 69 c0 -5 -5 -11 -11 -13 -6 -2 -11 4 -11 13 0 9 5 15 11 13 6
-2 11 -8 11 -13z m4020 -22 c7 -49 3 -52 -16 -14 -20 37 -20 51 -2 51 8 0 16
-14 18 -37z m628 17 c41 -10 80 -27 87 -37 9 -12 13 -60 13 -158 0 -162 11
-137 -124 -293 -44 -51 -87 -92 -94 -92 -13 0 -14 23 -8 150 3 83 9 218 12
300 8 172 -2 160 114 130z m-5737 -39 c52 -35 105 -51 177 -51 30 0 61 -4 69
-9 24 -15 1 -31 -45 -31 -48 0 -59 -14 -19 -24 55 -14 19 -21 -110 -22 l-135
-1 -5 36 c-3 20 -9 54 -14 76 -15 63 15 72 82 26z m1574 -21 c1 -18 -2 -28 -7
-25 -12 7 -14 55 -2 55 4 0 8 -14 9 -30z m3357 1 c19 -21 14 -41 -9 -41 -14 0
-35 29 -35 49 0 18 25 13 44 -8z m-8324 -1 c0 -5 -2 -10 -4 -10 -3 0 -8 5 -11
10 -3 6 -1 10 4 10 6 0 11 -4 11 -10z m1268 -6 c12 -8 22 -20 22 -26 0 -6 -8
-4 -18 5 -10 10 -28 17 -40 17 -28 0 -62 -34 -62 -60 0 -23 33 -60 54 -60 22
0 64 39 69 63 3 17 5 15 6 -9 0 -16 -6 -39 -14 -50 -8 -10 -15 -32 -15 -49 -1
-16 -5 -39 -10 -50 -8 -18 -9 -17 -9 8 -1 31 -16 36 -24 7 -4 -14 -10 -18 -22
-14 -14 6 -16 3 -10 -14 5 -16 2 -22 -9 -22 -9 0 -16 7 -16 15 0 12 -5 11 -30
-3 -27 -15 -30 -22 -30 -67 0 -44 -8 -64 -66 -160 -36 -61 -67 -111 -68 -112
-1 -1 -27 -5 -57 -9 -56 -6 -56 -6 -109 41 -30 26 -75 63 -102 82 -42 31 -48
39 -48 71 0 72 7 80 144 171 72 48 151 99 176 113 l45 26 47 -18 c25 -10 65
-37 89 -61 35 -36 43 -41 47 -26 2 10 -8 37 -22 62 -34 57 -34 97 0 124 32 25
52 26 82 5z m8104 -25 l56 -29 -31 -32 c-18 -18 -56 -60 -85 -92 -28 -33 -54
-57 -57 -54 -3 3 -1 52 5 108 5 56 10 111 10 122 0 23 17 20 102 -23z m-8924
1 c41 -5 76 -11 80 -14 9 -10 20 -104 21 -177 1 -61 -2 -69 -33 -105 l-34 -39
-118 -11 c-80 -7 -123 -7 -132 0 -20 14 -92 162 -92 186 0 12 15 54 34 95 26
56 39 74 57 78 26 4 105 0 217 -13z m2577 -10 l16 -30 -31 0 c-25 0 -30 4 -30
23 0 46 23 49 45 7z m-2355 -59 c0 -42 -5 -56 -36 -93 -20 -23 -40 -44 -44
-46 -12 -5 -18 20 -25 107 l-8 81 57 0 56 0 0 -49z m70 32 c0 -5 -9 -19 -19
-32 -20 -26 -37 -15 -26 19 6 18 45 29 45 13z m1577 1 c-3 -3 -12 -4 -19 -1
-8 3 -5 6 6 6 11 1 17 -2 13 -5z m-1371 -22 c11 -6 -8 -24 -78 -73 -109 -76
-175 -119 -183 -119 -3 0 -5 21 -5 48 0 50 12 74 64 131 l31 33 78 -6 c43 -3
85 -9 93 -14z m-796 1 c0 -21 -26 -73 -35 -70 -18 6 -17 38 1 58 17 19 34 25
34 12z m3537 1 c-3 -3 -12 -4 -19 -1 -8 3 -5 6 6 6 11 1 17 -2 13 -5z m4183
-9 c-14 -17 -100 -75 -112 -75 -4 0 -8 5 -8 10 0 6 5 10 10 10 6 0 34 16 63
35 57 39 65 42 47 20z m-3623 -42 c18 -13 38 -34 44 -46 8 -14 -4 -7 -33 19
-25 23 -55 45 -67 49 -11 3 -21 11 -21 16 0 12 32 -4 77 -38z m921 17 c121
-29 167 -58 191 -123 15 -39 33 -30 50 26 16 51 31 63 24 20 -4 -27 -4 -27 11
-9 9 11 18 17 21 15 7 -8 -80 -136 -107 -158 -30 -25 -33 -20 -13 19 9 17 14
38 11 46 -7 19 -60 18 -76 -1 -7 -8 -27 -15 -44 -15 -18 0 -38 -6 -45 -12 -11
-10 -14 -10 -18 0 -3 8 -31 12 -89 12 -46 0 -84 3 -84 6 0 3 6 12 14 20 8 8
18 40 22 71 8 71 20 103 36 103 7 0 50 -9 96 -20z m2751 -31 c-46 -41 -71 -46
-77 -16 -3 12 11 24 49 42 29 13 57 21 62 18 6 -3 -10 -23 -34 -44z m-4244 11
c11 -13 14 -20 6 -20 -21 0 -52 21 -46 31 9 14 20 11 40 -11z m-4283 -15 c10
-21 8 -28 -8 -40 -18 -14 -17 -14 11 -15 43 -1 105 -32 144 -74 19 -20 30 -36
24 -36 -7 0 -15 5 -19 11 -3 6 -15 8 -26 6 -32 -9 -67 10 -89 48 -12 19 -25
35 -30 35 -5 0 -20 -18 -34 -40 -23 -37 -29 -40 -68 -40 -51 0 -60 -6 -47 -30
12 -23 -6 -39 -56 -47 l-37 -6 24 42 c13 24 42 55 64 70 26 18 39 33 37 45 -4
21 64 96 85 96 7 0 19 -11 25 -25z m4741 12 c-3 -5 3 -7 14 -3 26 8 93 -44
112 -87 22 -50 42 -197 30 -220 -8 -14 -7 -23 5 -36 9 -10 16 -23 16 -30 0 -6
7 -14 15 -17 8 -4 15 -14 15 -25 0 -28 -22 -69 -36 -69 -7 0 -22 -10 -34 -22
-19 -20 -24 -21 -73 -11 -51 12 -53 11 -79 -18 l-28 -29 -131 0 c-139 0 -162
-7 -149 -45 4 -11 4 -27 -1 -36 -7 -13 -3 -18 19 -24 90 -21 102 -27 119 -55
9 -17 25 -30 35 -30 10 0 18 -5 18 -10 0 -7 7 -7 21 0 27 15 31 9 33 -37 1
-34 -2 -38 -25 -41 -17 -2 -41 9 -76 38 -32 25 -57 38 -67 34 -12 -4 -15 -2
-10 9 6 16 -27 28 -86 29 -24 1 -34 7 -41 27 -12 30 -7 53 26 126 14 29 25 60
25 68 0 7 3 17 7 21 14 13 30 96 21 102 -5 4 0 13 11 21 27 18 26 31 -1 60
-12 13 -16 23 -10 23 6 0 19 14 28 31 14 28 19 30 50 25 21 -4 34 -3 34 4 0 5
-10 10 -21 10 -17 0 -19 3 -10 14 6 7 9 20 6 28 -5 11 2 14 27 11 l33 -3 -28
11 c-20 8 -26 16 -22 27 3 8 0 19 -7 23 -9 6 -8 13 6 28 10 11 23 18 27 15 15
-9 10 -24 -8 -24 -14 -1 -11 -6 11 -25 28 -22 32 -23 62 -10 37 15 93 5 114
-20 9 -11 23 -14 46 -9 41 8 44 0 7 -20 l-28 -15 38 -1 c40 0 42 4 31 59 -4
17 -12 31 -19 31 -6 0 -20 9 -30 20 -10 11 -26 20 -37 20 -10 0 -18 4 -18 8 0
5 -14 9 -31 10 -28 1 -30 -2 -25 -24 7 -27 -5 -32 -24 -9 -7 8 -28 17 -47 21
l-34 6 23 17 c13 9 41 16 63 16 22 0 39 5 38 10 -1 6 12 10 28 11 16 1 26 -3
22 -9z m-1818 -37 c19 0 25 -5 25 -21 0 -19 -4 -21 -33 -16 -47 7 -70 -8 -34
-22 16 -6 39 -11 53 -11 13 0 24 -3 24 -7 0 -31 -65 -323 -71 -323 -5 0 -9 5
-9 10 0 6 -10 15 -22 20 l-23 9 22 0 c12 1 27 11 34 22 10 20 9 21 -11 16 -17
-4 -24 -1 -27 14 -5 18 -8 17 -34 -12 -16 -18 -31 -31 -33 -28 -3 3 59 341 70
377 2 9 10 6 24 -8 11 -11 31 -20 45 -20z m5685 -14 c0 -6 -15 -23 -34 -38
-28 -23 -35 -25 -40 -12 -11 28 -6 51 16 79 l22 28 18 -23 c10 -12 18 -27 18
-34z m-7940 -1 c0 -8 -4 -17 -10 -20 -6 -4 -10 5 -10 20 0 15 4 24 10 20 6 -3
10 -12 10 -20z m40 -8 c0 -12 -5 -29 -10 -37 -7 -11 -10 -3 -10 28 0 26 4 41
10 37 6 -3 10 -16 10 -28z m2257 11 c-3 -8 -6 -5 -6 6 -1 11 2 17 5 13 3 -3 4
-12 1 -19z m644 12 c10 -6 19 -17 19 -26 0 -8 11 -36 24 -62 13 -26 26 -66 29
-90 3 -24 12 -51 21 -61 21 -23 20 -37 -2 -69 -33 -48 -34 -61 -5 -88 14 -13
22 -24 17 -24 -12 0 -84 52 -84 61 0 4 -19 0 -42 -9 -31 -12 -43 -13 -46 -4
-2 8 -25 12 -65 11 -34 -1 -54 -3 -44 -6 9 -2 17 -8 17 -13 0 -5 -13 -4 -30 1
-18 7 -30 18 -30 29 0 23 -14 28 -80 25 -50 -2 -57 0 -78 26 l-23 29 35 21
c29 17 36 27 36 52 0 77 40 149 105 188 23 15 50 19 118 19 49 0 97 -5 108
-10z m747 -9 c3 -8 -1 -12 -9 -9 -7 2 -15 10 -17 17 -3 8 1 12 9 9 7 -2 15
-10 17 -17z m4062 -16 c13 -16 7 -45 -9 -45 -14 0 -33 38 -26 50 9 14 21 12
35 -5z m-6432 -95 c69 -105 85 -146 20 -54 -23 32 -57 76 -75 97 -34 38 -43
62 -20 55 6 -2 40 -46 75 -98z m6312 41 c-60 -72 -117 -147 -134 -176 -17 -30
-17 -30 1 -5 52 70 157 181 170 178 16 -3 109 -175 100 -184 -9 -9 -78 89 -73
103 7 17 -10 17 -21 1 -14 -23 -2 -52 39 -95 l41 -42 -34 -21 c-51 -31 -79
-35 -126 -18 -42 15 -44 15 -58 -5 -21 -30 -19 -39 10 -35 34 4 28 -14 -13
-37 -19 -11 -40 -29 -46 -40 -40 -75 -71 -115 -99 -128 -18 -9 -36 -12 -41 -7
-7 7 13 68 55 168 15 37 -9 16 -30 -27 -11 -21 -29 -67 -41 -103 -19 -59 -43
-89 -58 -73 -18 18 137 346 192 407 17 19 31 36 31 39 0 15 42 55 54 51 10 -3
12 0 7 14 -4 10 -4 15 0 12 10 -10 84 63 77 76 -4 6 1 5 10 -3 16 -12 15 -16
-13 -50z m-7044 -36 c-3 -12 -17 -27 -31 -33 -22 -10 -25 -9 -31 13 -5 18 2
35 27 67 l34 42 3 -33 c2 -19 1 -44 -2 -56z m3185 62 c-10 -9 -11 -8 -5 6 3
10 9 15 12 12 3 -3 0 -11 -7 -18z m-678 -123 c10 -10 9 -46 -2 -40 -5 3 -11
-3 -14 -14 -6 -24 2 -62 13 -55 4 3 10 -35 13 -83 3 -67 1 -90 -9 -98 -9 -7
-14 -34 -15 -80 0 -48 -3 -63 -9 -49 -5 11 -8 142 -8 290 0 235 2 261 12 203
6 -37 14 -70 19 -74z m997 116 c0 -11 -7 -20 -15 -20 -18 0 -19 12 -3 28 16
16 18 15 18 -8z m1750 -1 c0 -6 -4 -7 -10 -4 -5 3 -10 11 -10 16 0 6 5 7 10 4
6 -3 10 -11 10 -16z m2018 -73 c34 -85 34 -89 17 -102 -37 -27 -53 -17 -90 56
-19 38 -35 75 -35 82 0 18 42 59 58 56 8 -2 30 -43 50 -92z m-3893 74 c3 -5 1
-10 -4 -10 -6 0 -11 5 -11 10 0 6 2 10 4 10 3 0 8 -4 11 -10z m-3975 -59 c0
-20 -9 -54 -19 -76 l-19 -40 -1 41 c-1 22 -5 44 -11 50 -6 6 -4 22 7 46 13 29
20 35 30 26 7 -6 13 -27 13 -47z m115 -11 c41 -81 43 -90 14 -64 -41 36 -77
94 -72 114 9 34 21 23 58 -50z m4015 55 c0 -8 -4 -15 -10 -15 -5 0 -10 7 -10
15 0 8 5 15 10 15 6 0 10 -7 10 -15z m-283 -45 c-11 -39 -37 -56 -37 -24 0 16
30 63 41 64 3 0 1 -18 -4 -40z m-3735 -101 c-18 -16 -92 -38 -97 -29 -3 5 -3
27 0 47 14 80 13 79 61 32 24 -24 41 -46 36 -50z m7848 71 l35 -5 -23 -23
c-29 -29 -46 -28 -60 3 -15 33 -15 48 0 39 7 -4 28 -10 48 -14z m-7445 -10 c0
-16 -52 -56 -61 -47 -9 9 36 69 50 64 6 -2 11 -10 11 -17z m4280 10 c-3 -5
-14 -10 -23 -10 -15 0 -15 2 -2 10 20 13 33 13 25 0z m1114 -31 c6 -18 10 -50
10 -73 l-1 -41 -8 46 c-4 26 -13 56 -19 67 -13 25 -14 32 -2 32 5 0 14 -14 20
-31z m3261 -25 c-8 -50 -9 -51 -94 -95 -66 -34 -66 -35 28 79 33 39 62 69 66
67 4 -2 4 -25 0 -51z m-7920 27 c7 -15 5 -25 -10 -43 l-19 -23 -1 36 c0 31 6
49 16 49 2 0 8 -9 14 -19z m-660 -10 c0 -29 -11 -51 -25 -51 -19 0 -27 28 -15
51 14 25 40 25 40 0z m8002 -57 c15 -27 24 -52 20 -55 -8 -8 -112 -23 -112
-17 0 8 32 113 37 121 10 16 29 -1 55 -49z m-567 26 c-10 -11 -23 -20 -29 -20
-6 1 0 10 13 20 30 26 39 26 16 0z m-8186 -85 c29 -62 27 -68 -16 -50 -48 20
-47 19 -35 54 7 19 7 33 1 36 -5 4 -9 11 -9 16 0 23 39 -14 59 -56z m1213 -77
c-11 -11 -92 -24 -92 -15 0 6 46 87 77 134 l18 27 3 -68 c2 -38 -1 -73 -6 -78z
m260 97 c26 -53 21 -62 -45 -71 l-47 -7 0 34 c0 31 40 89 62 89 5 0 18 -20 30
-45z m3908 -12 c-34 -62 -80 -116 -80 -95 0 34 79 152 102 152 5 0 -4 -26 -22
-57z m-5230 32 c0 -8 -4 -15 -10 -15 -5 0 -7 7 -4 15 4 8 8 15 10 15 2 0 4 -7
4 -15z m-276 -59 c64 -30 116 -60 116 -66 0 -6 -8 -9 -17 -6 -10 3 -57 15
-104 26 -47 12 -91 25 -97 29 -12 7 -29 71 -19 71 3 0 58 -24 121 -54z m151
44 c3 -5 2 -10 -4 -10 -5 0 -13 5 -16 10 -3 6 -2 10 4 10 5 0 13 -4 16 -10z
m2695 -53 c8 -17 13 -36 12 -41 -2 -4 2 -14 8 -21 8 -9 8 -15 0 -20 -17 -10
-12 -44 14 -94 13 -25 27 -59 29 -76 5 -28 4 -28 -9 -10 -8 10 -24 51 -36 90
-12 38 -28 75 -36 82 -21 18 -44 103 -31 119 15 18 32 9 49 -29z m6600 -32 c0
-41 -3 -75 -6 -75 -9 0 -135 72 -132 75 9 10 123 75 130 75 4 0 8 -34 8 -75z
m-1235 6 c-3 -6 -11 -11 -17 -11 -6 0 -6 6 2 15 14 17 26 13 15 -4z m-8341
-16 c3 -8 8 -38 11 -67 6 -51 5 -52 -9 -27 -20 34 -32 109 -18 109 5 0 12 -7
16 -15z m6346 -5 c0 -5 -2 -10 -4 -10 -3 0 -8 5 -11 10 -3 6 -1 10 4 10 6 0
11 -4 11 -10z m-6197 -19 c37 -10 70 -21 74 -24 7 -8 -67 -97 -81 -97 -10 0
-36 34 -79 108 -18 31 -18 32 0 32 10 0 49 -8 86 -19z m1631 -3 c24 -38 31
-78 13 -78 -9 0 -19 5 -23 11 -3 6 -17 8 -30 5 -13 -4 -42 -3 -64 0 -37 6 -40
9 -40 40 0 37 8 41 82 43 39 1 50 -3 62 -21z m786 -48 c20 -43 22 -58 16 -122
-8 -93 -29 -204 -39 -214 -4 -4 -5 18 -1 49 4 32 3 57 -2 57 -15 0 -42 -61
-58 -130 -18 -78 -44 -152 -45 -127 -2 53 87 537 99 537 4 0 17 -22 30 -50z
m-1090 20 c0 -4 -7 -13 -16 -21 -12 -10 -22 -10 -45 -2 -16 6 -38 9 -49 6 -11
-3 -20 -1 -20 5 0 6 17 14 38 17 20 4 44 7 52 9 19 3 40 -4 40 -14z m7471
-235 c67 -126 133 -256 146 -287 24 -61 30 -113 13 -123 -5 -3 -10 3 -10 13 0
11 -9 30 -21 43 -11 13 -19 17 -16 9 2 -8 7 -25 11 -36 5 -15 2 -24 -11 -28
-28 -11 -62 42 -233 369 -29 55 -70 130 -90 167 -28 48 -35 69 -27 77 28 28
42 9 157 -210 87 -167 173 -314 177 -302 5 13 -58 134 -198 387 -78 141 -81
150 -64 163 15 11 21 11 31 1 7 -7 67 -116 135 -243z m-8871 193 c16 -29 30
-61 30 -70 0 -25 -27 -22 -44 5 -15 23 -33 117 -22 117 3 0 19 -24 36 -52z
m8097 36 c-16 -9 -31 -13 -34 -10 -3 3 5 10 18 15 37 15 47 12 16 -5z m248 6
c3 -5 1 -10 -4 -10 -6 0 -11 5 -11 10 0 6 2 10 4 10 3 0 8 -4 11 -10z m169
-22 c-5 -8 -2 -9 9 -5 11 4 17 1 17 -8 0 -17 -16 -20 -25 -5 -13 21 -22 9 -19
-23 3 -27 -2 -39 -35 -71 -22 -21 -44 -35 -49 -32 -6 3 -18 29 -27 56 -19 58
-35 73 -35 34 l0 -28 -20 22 c-12 12 -26 22 -33 22 -25 0 19 20 46 20 15 0 27
4 27 10 0 5 20 7 49 3 28 -3 56 -1 67 5 25 15 37 15 28 0z m-7982 -45 c-3 -22
2 -24 93 -38 72 -11 76 -26 5 -19 -36 4 -69 10 -75 14 -10 7 -31 10 -72 10
-28 0 -30 20 -3 27 11 3 20 12 20 20 0 8 7 13 18 11 11 -2 16 -11 14 -25z
m8818 -38 c105 -53 222 -172 272 -275 51 -106 61 -151 62 -272 1 -58 4 -104 9
-101 9 6 9 4 -4 -59 -23 -108 -133 -288 -176 -288 -8 0 -33 -16 -56 -35 -22
-19 -45 -35 -50 -35 -9 0 -5 -28 9 -65 5 -13 2 -15 -17 -10 -28 6 -41 -1 -58
-32 -28 -54 1 -103 62 -103 16 0 42 -8 58 -17 l29 -17 0 -195 c0 -167 -2 -197
-17 -213 -9 -10 -25 -18 -36 -18 -12 0 -47 -7 -78 -16 -45 -13 -56 -20 -52
-33 5 -12 1 -12 -15 4 -21 21 -68 140 -137 350 -62 187 -62 178 10 188 68 10
84 19 66 41 -10 12 -7 18 21 32 48 25 21 28 -84 10 -124 -22 -216 -18 -225 9
-2 6 36 10 94 10 101 0 193 11 193 23 0 4 -11 15 -25 25 -23 16 -30 16 -156
-4 -109 -17 -133 -19 -140 -7 -5 7 -9 17 -9 21 0 13 159 84 225 102 32 8 69
22 82 31 23 15 24 15 14 -5 -16 -28 -14 -66 4 -81 8 -7 15 -21 15 -31 0 -40
99 -17 119 28 20 44 12 77 -63 235 -41 86 -71 159 -68 162 10 11 22 6 22 -10
0 -9 32 -79 71 -157 44 -89 72 -159 76 -188 l6 -47 27 27 c55 53 132 147 151
183 28 55 49 167 49 262 0 234 -115 428 -317 534 -91 48 -84 56 11 11 85 -40
182 -130 247 -227 67 -100 70 -102 23 -13 -66 127 -207 249 -346 299 -27 9
-48 20 -48 24 0 10 65 -14 150 -57z m-3240 35 c29 -29 25 -45 -16 -69 -37 -22
-58 -21 -36 1 7 7 12 29 12 50 0 43 11 47 40 18z m210 12 c0 -17 -25 -32 -52
-32 -38 0 -35 15 5 28 42 13 47 14 47 4z m-2851 -219 c1 -95 -1 -103 -18 -103
-23 0 -31 19 -31 70 0 46 9 72 21 64 5 -3 10 38 10 93 2 93 2 95 9 38 4 -33 8
-106 9 -162z m5595 208 c3 -4 -35 -11 -84 -15 -50 -4 -97 -9 -105 -12 -8 -4
-15 -2 -15 4 0 19 193 41 204 23z m62 -33 c8 -16 13 -32 10 -35 -5 -6 -46 56
-46 70 0 15 20 -4 36 -35z m-847 -27 c17 -32 31 -63 31 -69 0 -9 -52 -2 -207
29 -29 6 -53 13 -53 17 0 4 34 21 76 37 42 17 78 33 80 38 3 4 13 7 23 7 12 0
29 -20 50 -59z m-3611 32 c5 -17 -26 -29 -40 -15 -6 6 -7 15 -3 22 9 14 37 9
43 -7z m-1048 -13 c0 -5 -7 -10 -15 -10 -8 0 -15 5 -15 10 0 6 7 10 15 10 8 0
15 -4 15 -10z m4770 -94 c-1 -21 -1 -21 -16 -1 -9 11 -24 38 -35 60 l-20 40
36 -39 c19 -22 35 -49 35 -60z m-7105 74 c-3 -5 -15 -10 -26 -10 -10 0 -19 5
-19 10 0 6 12 10 26 10 14 0 23 -4 19 -10z m150 0 c-3 -5 -28 -10 -56 -10 -27
0 -49 5 -49 10 0 6 25 10 56 10 34 0 53 -4 49 -10z m47 -26 c5 -16 5 -40 2
-54 l-7 -25 -7 25 c-17 61 -20 92 -8 88 7 -3 16 -18 20 -34z m3175 0 c-3 -3
-12 -4 -19 -1 -8 3 -5 6 6 6 11 1 17 -2 13 -5z m-3217 -29 c0 -14 -4 -25 -10
-25 -11 0 -14 33 -3 43 11 11 13 8 13 -18z m2902 -40 c4 -42 -33 -47 -73 -9
-28 27 -28 28 -9 41 11 8 29 11 40 8 13 -4 20 -2 20 7 1 23 18 -15 22 -47z
m408 11 l0 -35 253 5 c163 3 247 2 237 -4 -8 -6 -125 -12 -260 -13 l-245 -4
-3 43 c-2 25 1 42 7 42 6 0 11 -15 11 -34z m3864 -48 c-65 -69 -82 -82 -64
-47 15 28 111 121 118 114 3 -3 -21 -33 -54 -67z m-9213 11 c117 -45 133 -55
98 -63 -91 -21 -121 -26 -171 -26 -57 0 -58 1 -58 28 0 25 18 102 24 102 1 0
49 -18 107 -41z m6644 21 c-3 -5 -36 -10 -73 -10 -47 0 -63 3 -52 10 20 13
133 13 125 0z m3914 -31 c-26 -33 -37 -40 -58 -36 -14 3 -61 11 -104 17 -43 7
-75 15 -72 18 8 9 184 40 228 41 l39 1 -33 -41z m-4529 21 c0 -5 -12 -10 -27
-10 -22 0 -25 2 -13 10 20 13 40 13 40 0z m447 4 c-3 -3 -12 -4 -19 -1 -8 3
-5 6 6 6 11 1 17 -2 13 -5z m-2322 -14 c3 -5 2 -10 -4 -10 -5 0 -13 5 -16 10
-3 6 -2 10 4 10 5 0 13 -4 16 -10z m-1785 -40 c-8 -5 -26 -10 -40 -10 -14 0
-32 5 -40 10 -11 7 1 10 40 10 39 0 51 -3 40 -10z m4280 -14 c0 -22 -4 -24
-81 -31 -92 -8 -319 3 -319 16 0 23 83 33 308 37 91 2 92 2 92 -22z m2476 -4
c-17 -16 -18 -16 -5 5 7 12 15 20 18 17 3 -2 -3 -12 -13 -22z m721 21 c-4 -3
-2 -12 4 -19 15 -18 3 -34 -26 -34 -30 0 -41 28 -18 46 18 13 52 20 40 7z
m-7864 -20 c-13 -2 -33 -2 -45 0 -13 2 -3 4 22 4 25 0 35 -2 23 -4z m3977 -3
c-20 -13 -33 -13 -25 0 3 6 14 10 23 10 15 0 15 -2 2 -10z m30 -97 c-101 -189
-161 -293 -197 -339 -20 -27 -28 -44 -19 -41 9 4 16 2 16 -3 0 -15 -21 -23
-32 -12 -8 8 -16 4 -29 -11 -9 -12 -19 -20 -22 -17 -2 3 23 42 57 87 33 45 96
145 139 222 85 154 128 223 135 217 2 -3 -20 -49 -48 -103z m4485 89 l27 -8
-52 -57 c-29 -31 -55 -57 -59 -57 -6 0 -36 78 -49 129 -3 11 7 12 51 7 30 -4
67 -10 82 -14z m-4723 -2 c-27 -11 -160 -27 -287 -34 -55 -3 -80 -1 -65 4 14
4 37 8 53 9 28 1 37 15 15 24 -7 3 59 5 147 6 107 0 152 -3 137 -9z m-2057
-62 c28 -149 58 -203 129 -238 51 -24 238 -64 356 -76 83 -8 73 -22 -17 -23
-60 -1 -257 47 -325 79 -57 27 -114 82 -128 126 -7 19 -16 34 -21 34 -30 0 19
-88 81 -143 61 -55 108 -78 224 -112 123 -35 135 -44 61 -44 -113 0 -294 59
-338 111 -76 90 -117 175 -117 242 0 24 8 36 33 53 44 30 54 28 62 -9z m1487
-8 c7 -11 18 -20 25 -20 7 0 13 -12 13 -27 0 -25 0 -26 -20 -8 -11 10 -18 21
-15 23 3 3 -5 16 -17 29 -12 13 -16 23 -10 23 7 0 17 -9 24 -20z m-1121 -65
c5 4 7 16 3 27 -4 15 -3 18 6 13 15 -9 8 -121 -8 -137 -16 -16 -25 10 -28 86
-3 60 -2 66 6 38 6 -18 15 -30 21 -27z m-912 17 c8 -16 31 -152 31 -188 0 -16
1 -16 -136 17 -80 19 -91 24 -87 40 5 16 11 18 42 13 20 -4 46 -11 59 -15 26
-10 33 2 52 94 12 59 22 70 39 39z m5878 -1 c-3 -14 -1 -18 9 -14 10 4 14 -3
14 -21 0 -14 -6 -26 -12 -26 -9 0 -10 -2 -2 -8 8 -4 13 -58 16 -147 4 -115 9
-151 28 -200 48 -125 149 -239 284 -322 44 -26 81 -54 84 -61 8 -25 -180 81
-237 134 -32 30 -62 54 -67 54 -13 0 48 -59 109 -106 33 -24 54 -44 49 -44
-21 0 -135 95 -178 148 -46 56 -95 144 -120 214 -36 103 -38 260 -4 381 11 37
37 54 27 18z m-3980 -13 c-3 -8 -6 -5 -6 6 -1 11 2 17 5 13 3 -3 4 -12 1 -19z
m-2627 -3 c0 -18 -30 -18 -85 0 l-40 13 63 1 c49 1 62 -2 62 -14z m118 -10 c0
-25 -12 -33 -22 -16 -7 11 3 41 14 41 4 0 8 -11 8 -25z m549 -27 c-3 -7 -5 -2
-5 12 0 14 2 19 5 13 2 -7 2 -19 0 -25z m2029 6 c-25 -18 -40 -18 -55 -1 -8
11 -5 13 18 9 16 -2 32 1 36 8 4 6 10 8 13 5 4 -4 -2 -13 -12 -21z m-4415 -80
c-19 -24 -19 -28 -5 -62 43 -103 103 -170 193 -214 39 -20 62 -23 156 -23 102
0 114 2 164 29 57 29 77 30 164 5 37 -10 38 -11 22 -29 -12 -14 -15 -27 -10
-47 5 -23 4 -26 -6 -15 -23 22 -49 14 -55 -18 -4 -16 -10 -30 -15 -30 -5 0 -6
7 -3 15 8 19 2 19 -49 -4 -58 -27 -195 -42 -271 -30 -171 27 -324 154 -391
324 -15 39 -31 74 -36 80 -14 14 -11 35 6 35 8 0 31 -8 51 -17 36 -18 37 -17
53 4 9 12 24 22 34 23 17 0 17 -2 -2 -26z m6249 18 c0 -5 -9 -17 -20 -27 -17
-15 -24 -16 -47 -6 -30 14 -22 28 22 34 17 2 33 5 38 6 4 0 7 -3 7 -7z m1940
-47 c0 -42 -4 -57 -16 -62 -16 -6 -131 43 -122 52 11 12 114 65 126 65 8 0 12
-18 12 -55z m844 10 c19 -35 19 -36 0 -50 -27 -20 -29 -19 -50 21 -19 35 -19
36 0 50 27 19 29 19 50 -21z m-9828 -83 c1 -68 -6 -58 -20 26 -4 31 -3 42 6
42 9 0 13 -21 14 -68z m5494 28 c0 -10 -4 -22 -10 -25 -6 -4 -10 7 -10 25 0
18 4 29 10 25 6 -3 10 -15 10 -25z m3053 9 c61 -7 119 -16 127 -20 11 -5 -19
-24 -102 -63 -64 -31 -125 -56 -136 -56 -15 0 -21 9 -26 46 -11 81 -8 117 9
110 8 -3 66 -11 128 -17z m-5467 0 c24 -6 44 -16 44 -21 0 -6 -8 -7 -17 -3
-10 4 -33 9 -51 12 -18 3 -35 10 -38 14 -7 12 8 11 62 -2z m5760 -5 c17 -14
17 -15 1 -10 -10 3 -28 6 -38 6 -11 0 -17 5 -14 10 9 15 28 12 51 -6z m-8200
-120 c15 -30 15 -34 -2 -59 -18 -28 -18 -28 -103 -21 -47 3 -87 8 -89 10 -5 5
40 72 98 145 l43 54 19 -49 c10 -27 25 -63 34 -80z m6174 87 c15 -28 13 -33
-12 -29 -15 2 -24 11 -26 26 -4 28 23 30 38 3z m2814 7 c3 -7 7 -25 10 -40 5
-20 19 -33 56 -51 l50 -24 -40 -18 c-47 -21 -67 -15 -76 22 -4 15 -18 41 -31
56 -12 16 -23 35 -23 42 0 23 48 34 54 13z m-3959 -8 c4 -6 -2 -23 -12 -38
-10 -15 -20 -38 -23 -52 -6 -30 -43 -50 -92 -50 l-38 0 0 58 c0 40 3 53 10 42
5 -8 10 -27 10 -42 0 -16 5 -28 10 -28 6 0 10 4 10 10 0 12 98 110 110 110 5
0 12 -5 15 -10z m3238 -11 c53 -13 85 -35 71 -49 -22 -22 -479 -270 -493 -268
-7 2 -26 39 -42 83 -34 94 -32 85 -18 85 6 0 26 12 44 26 19 14 83 52 142 85
l108 59 73 -5 c40 -3 91 -10 115 -16z m984 4 c3 -6 -14 -24 -37 -39 -23 -16
-39 -33 -36 -40 3 -7 -8 -19 -24 -28 -32 -16 -49 -6 -25 14 8 7 15 22 15 34 0
29 24 63 34 48 4 -7 12 -12 17 -12 6 0 7 5 4 10 -3 6 -3 15 0 21 9 13 47 8 52
-8z m-5307 -38 c111 -17 120 -18 101 -6 -10 6 -10 10 -1 16 6 4 20 -2 31 -14
11 -12 25 -21 31 -21 6 0 72 -7 147 -16 90 -11 136 -13 139 -6 2 6 13 5 31 -4
16 -8 74 -22 130 -31 96 -16 120 -26 86 -40 -9 -3 -22 -18 -31 -34 -12 -24
-21 -29 -52 -29 -48 0 -383 45 -487 66 -73 14 -85 14 -125 0 -53 -18 -64 -12
-30 16 24 19 33 20 175 13 99 -4 147 -3 140 3 -9 9 -139 31 -288 48 -51 6 -56
8 -40 20 16 12 13 13 -27 14 -25 0 -52 5 -60 10 -22 14 15 13 130 -5z m1210
-20 c36 -19 37 -25 7 -53 -26 -25 -117 -43 -117 -23 0 6 7 11 15 11 8 0 25 18
37 40 13 22 24 40 26 40 2 0 16 -7 32 -15z m475 -37 c48 -3 50 -4 50 -33 0
-34 1 -34 -168 -20 -76 7 -78 7 -61 26 10 11 30 19 50 19 18 0 39 6 46 14 7 8
17 10 23 6 6 -5 33 -10 60 -12z m-6265 2 c0 -5 -4 -10 -10 -10 -5 0 -10 5 -10
10 0 6 5 10 10 10 6 0 10 -4 10 -10z m3854 -3 c-6 -17 66 -42 97 -34 20 5 21
4 7 -9 -12 -13 -23 -14 -54 -5 -49 13 -79 34 -70 49 10 16 27 15 20 -1z m5165
-72 c15 -44 37 -98 48 -119 l20 -39 -30 -76 c-17 -42 -35 -81 -41 -88 -6 -6
-87 -23 -181 -37 -93 -14 -181 -28 -195 -30 -44 -7 -76 19 -114 95 -43 86 -41
93 52 153 108 70 386 225 400 223 7 -1 25 -38 41 -82z m1616 -13 c33 -19 62
-37 65 -39 10 -8 -27 -23 -58 -23 -27 0 -42 10 -85 56 -73 79 -78 90 -25 63
23 -11 70 -37 103 -57z m-7000 27 c149 -61 249 -109 242 -115 -3 -3 -16 0 -29
7 -12 7 -93 39 -178 70 -85 31 -156 62 -158 68 -6 19 19 13 123 -30z m-3635
21 c0 -5 -4 -10 -10 -10 -5 0 -10 5 -10 10 0 6 5 10 10 10 6 0 10 -4 10 -10z
m5640 2 c0 -4 -9 -13 -20 -20 -22 -13 -27 -3 -8 16 14 14 28 16 28 4z m-5365
-22 c49 -6 94 -15 98 -19 11 -11 -29 -67 -52 -76 -9 -4 -47 -12 -86 -20 -38
-7 -77 -16 -85 -19 -14 -6 -23 11 -66 127 -5 15 1 17 47 17 30 0 94 -5 144
-10z m400 -1 c10 -15 -1 -23 -20 -15 -9 3 -13 10 -10 16 8 13 22 13 30 -1z
m4895 2 c0 -5 -7 -12 -16 -15 -14 -5 -15 -4 -4 9 14 17 20 19 20 6z m4964 -45
c32 -37 37 -49 26 -56 -17 -10 -132 -31 -138 -25 -3 2 3 23 13 47 9 24 21 53
26 66 12 31 25 25 73 -32z m-10480 -8 c8 -21 12 -38 8 -38 -4 0 -15 21 -24 46
-19 54 -7 47 16 -8z m475 26 c33 -4 61 -10 61 -14 0 -8 -212 -51 -219 -45 -2
2 7 18 19 34 23 34 33 36 139 25z m5924 -23 c9 -9 3 -11 -30 -5 l-41 6 4 -38
c5 -34 0 -46 -39 -95 -73 -91 -183 -153 -316 -180 -71 -14 -80 -9 -100 50 -9
28 -8 37 9 58 11 14 20 33 20 43 0 9 14 34 30 55 17 21 30 48 30 59 0 50 15
55 160 58 209 5 259 3 273 -11z m3262 -11 c9 -17 34 -58 55 -92 41 -63 47 -78
30 -78 -14 0 -120 161 -120 182 0 28 18 21 35 -12z m-8973 -17 c24 -27 26 -35
31 -169 3 -77 1 -147 -4 -155 -12 -22 -251 -179 -272 -179 -9 0 -47 28 -83 63
-79 74 -84 48 49 247 145 217 143 215 223 219 21 1 38 -7 56 -26z m5796 7 c11
-18 9 -22 -13 -32 -31 -14 -35 -11 -28 25 6 32 23 35 41 7z m-1633 0 c3 -5 0
-19 -8 -30 -13 -18 -15 -19 -21 -5 -10 27 -7 45 8 45 8 0 18 -4 21 -10z m6155
2 c0 -21 -33 -118 -44 -130 -8 -8 -20 -10 -32 -5 -32 13 -184 107 -184 114 0
9 122 26 198 28 34 0 62 -3 62 -7z m-10496 -14 c-12 -22 -216 -322 -225 -332
-12 -13 -35 9 -81 76 -22 34 -36 64 -32 71 4 6 28 39 53 71 25 33 49 64 53 70
4 6 55 20 115 32 133 27 126 27 117 12z m1232 -19 c6 -10 -17 -12 -40 -3 -9 3
-14 10 -11 14 6 10 43 1 51 -11z m3764 9 c0 -4 -10 -8 -22 -8 -11 0 -44 -17
-72 -39 -85 -64 -133 -91 -197 -107 -84 -22 -85 -11 -1 15 97 29 287 156 200
133 -14 -3 -19 -2 -14 7 8 13 106 13 106 -1z m63 5 c-7 -2 -21 -2 -30 0 -10 3
-4 5 12 5 17 0 24 -2 18 -5z m-3912 -18 c0 -6 -10 -12 -23 -13 -19 -4 -20 -2
-9 12 15 17 33 18 32 1z m9197 -87 c67 -45 72 -51 72 -84 0 -45 -47 -134 -70
-134 -15 0 -183 176 -250 263 -24 30 -23 31 45 45 45 10 69 0 203 -90z
m-10810 45 c19 -41 14 -52 -8 -18 -21 32 -25 45 -12 45 4 0 13 -12 20 -27z
m191 5 c-22 -42 -71 -98 -85 -98 -7 0 -23 18 -34 40 l-20 39 57 16 c32 9 63
18 68 20 22 8 25 4 14 -17z m10323 10 c35 -27 241 -275 254 -306 13 -28 12
-36 -1 -63 -9 -16 -34 -48 -56 -70 -21 -21 -39 -43 -39 -48 0 -5 -10 -7 -21
-4 -21 6 -250 149 -404 253 l-75 51 55 66 c30 37 55 70 55 75 0 9 136 47 211
57 3 1 12 -5 21 -11z m-9764 -27 c27 -16 63 -32 81 -36 33 -7 63 -39 55 -60
-7 -18 -174 -128 -182 -120 -8 8 -16 245 -8 245 3 0 27 -13 54 -29z m1134 -96
c22 -47 38 -88 35 -91 -3 -3 -49 8 -102 26 -86 29 -98 36 -110 64 -22 52 -22
71 -2 68 9 -2 25 2 35 7 9 6 36 11 60 11 l43 0 41 -85z m-224 52 c18 -21 26
-67 12 -67 -21 0 -170 54 -170 62 0 7 42 13 111 16 20 1 41 -4 47 -11z m8238
-3 c17 -14 17 -15 1 -10 -10 3 -30 6 -43 6 -14 0 -22 4 -19 10 9 15 39 12 61
-6z m-9856 -25 c0 -6 -4 -7 -10 -4 -5 3 -10 11 -10 16 0 6 5 7 10 4 6 -3 10
-11 10 -16z m1373 -33 c-1 -27 -4 -60 -8 -73 -5 -21 -8 -23 -21 -12 -29 24
-76 100 -70 114 2 7 20 16 38 18 61 7 63 6 61 -47z m7641 6 c20 -24 34 -48 31
-53 -3 -4 -22 -11 -43 -14 -20 -4 -49 -9 -64 -11 -16 -3 -28 -1 -28 5 0 21 50
123 59 119 5 -1 25 -23 45 -46z m-7780 18 c13 -13 -49 -243 -64 -238 -16 6
-170 212 -167 222 2 6 38 13 80 16 42 3 80 9 84 14 9 8 54 -1 67 -14z m-279
-9 c3 -6 -14 -29 -37 -53 l-43 -43 -3 35 c-3 26 2 39 18 52 24 20 55 24 65 9z
m8924 -67 c-6 -8 -16 -14 -22 -14 -5 0 -3 8 6 18 10 10 18 32 19 48 1 28 1 28
5 -4 3 -18 -1 -40 -8 -48z m-9861 41 c-3 -3 -9 2 -12 12 -6 14 -5 15 5 6 7 -7
10 -15 7 -18z m1065 -131 l86 -111 -41 -144 c-36 -127 -70 -219 -82 -219 -31
0 -162 33 -168 42 -4 7 -8 114 -8 238 l0 224 52 53 c41 41 55 50 64 40 6 -6
50 -62 97 -123z m1287 131 c0 -2 -9 -19 -21 -37 -12 -18 -18 -24 -14 -13 4 11
10 28 12 38 5 15 23 25 23 12z m-2344 -53 c-10 -10 -29 15 -21 28 6 9 10 8 17
-4 6 -10 7 -20 4 -24z m1285 -17 l42 -55 -13 -78 c-17 -113 -31 -172 -38 -172
-4 1 -30 31 -59 69 l-52 68 15 54 c33 120 44 160 44 164 0 18 26 -3 61 -50z
m-466 14 c8 -35 6 -38 -99 -146 -38 -40 -73 -70 -78 -67 -4 3 -8 34 -8 69 l0
63 82 56 c45 31 85 56 89 56 4 0 10 -14 14 -31z m9199 -11 c3 -13 6 -35 6 -50
0 -15 4 -29 9 -32 11 -7 73 -166 69 -177 -2 -5 -18 3 -35 17 -30 23 -33 30
-33 80 0 30 -4 54 -10 54 -5 0 -10 -22 -10 -50 0 -27 -3 -50 -7 -50 -25 1 -32
19 -28 81 4 56 2 69 -15 84 -18 17 -18 17 8 41 34 29 38 29 46 2z m-9964 -21
c0 -5 -4 -5 -10 -2 -5 3 -10 14 -10 23 0 15 2 15 10 2 5 -8 10 -19 10 -23z
m3023 26 c-7 -2 -19 -2 -25 0 -7 3 -2 5 12 5 14 0 19 -2 13 -5z m-3053 -13 c0
-5 -7 -10 -16 -10 -8 0 -12 5 -9 10 3 6 10 10 16 10 5 0 9 -4 9 -10z m9054 1
c3 -5 -23 -82 -58 -172 -112 -284 -139 -354 -142 -357 -1 -2 -13 7 -26 20 -13
13 -45 38 -71 55 -38 27 -47 38 -47 62 0 45 80 251 109 282 63 67 217 139 235
110z m1223 -127 c114 -75 220 -148 236 -162 l27 -26 -27 -29 c-16 -15 -42 -37
-60 -48 -20 -13 -30 -25 -26 -35 6 -16 -22 -20 -32 -4 -3 6 -12 10 -20 10 -7
0 -66 30 -131 67 -130 74 -127 70 -193 249 -27 75 -28 82 -13 98 9 9 20 16 24
16 4 0 101 -61 215 -136z m-1367 111 c0 -6 -62 -45 -72 -45 -13 0 -9 18 8 34
14 15 64 23 64 11z m-100 -20 c0 -38 -29 -65 -145 -137 l-125 -77 -29 25 c-29
24 -91 110 -91 125 0 9 108 34 257 59 136 23 133 23 133 5z m423 -75 l64 -29
33 -90 32 -91 -38 -47 c-78 -99 -260 -273 -284 -273 -18 0 -20 3 -11 14 10 12
5 16 -23 26 -19 6 -53 25 -76 41 -36 26 -41 34 -35 57 6 25 135 364 168 445
l16 37 45 -30 c25 -17 74 -44 109 -60z m-8434 -165 c1 -165 -9 -235 -34 -235
-28 0 -105 24 -105 33 0 4 8 6 18 3 53 -15 84 -18 78 -7 -4 6 -14 11 -22 11
-9 0 -37 9 -63 21 l-48 20 -7 92 -6 92 87 87 c106 106 101 112 102 -117z
m-682 162 c-6 -20 -27 -19 -27 2 0 14 5 19 15 14 9 -3 14 -10 12 -16z m473
-49 l0 -72 -57 -58 c-32 -32 -61 -58 -66 -58 -14 0 -127 80 -127 90 0 16 214
169 238 169 8 1 12 -20 12 -71z m829 -52 c131 -180 156 -223 141 -241 -15 -18
-73 -35 -122 -35 -32 0 -43 7 -85 56 -81 93 -79 87 -59 209 16 102 24 135 32
135 1 0 44 -56 93 -124z m-1262 62 c-3 -8 -6 -5 -6 6 -1 11 2 17 5 13 3 -3 4
-12 1 -19z m8599 -25 c-34 -95 -82 -197 -94 -201 -14 -4 -102 78 -102 96 0 10
187 142 202 142 4 0 1 -17 -6 -37z m669 10 c25 -3 45 -9 45 -13 0 -20 -85
-119 -94 -109 -4 5 -46 127 -46 135 0 3 11 3 25 0 14 -4 45 -9 70 -13z m231
-263 c62 -185 79 -248 70 -257 -6 -7 -52 -15 -102 -19 l-90 -7 -24 54 c-12 30
-36 91 -51 136 l-29 83 40 125 c22 69 40 128 40 131 0 3 15 4 33 2 l32 -3 81
-245z m-8457 154 l54 -75 -13 -72 c-7 -40 -16 -79 -21 -89 -9 -18 -140 -45
-159 -33 -14 9 -5 74 27 190 33 124 43 155 51 155 4 0 31 -34 61 -76z m-958
-7 c-8 -8 -11 -5 -11 9 0 27 14 41 18 19 2 -9 -1 -22 -7 -28z m9209 -23 c-33
-96 -30 -92 -45 -64 -8 14 -14 31 -15 37 0 14 70 96 76 90 2 -2 -5 -30 -16
-63z m620 24 c28 -19 41 -42 77 -138 33 -86 41 -120 35 -135 -6 -13 -35 -29
-81 -44 -39 -13 -73 -22 -76 -20 -2 3 -7 85 -11 182 -8 197 -8 198 56 155z
m-9480 -50 c0 -73 -9 -84 -48 -64 -17 9 -33 20 -36 24 -6 10 61 92 75 92 5 0
9 -24 9 -52z m9699 -77 c30 -20 56 -40 58 -46 5 -16 -117 -79 -129 -67 -10 10
-77 179 -78 195 0 9 66 -28 149 -82z m-893 -8 c3 -18 2 -46 -4 -61 -6 -15 -25
-67 -43 -117 -29 -80 -49 -114 -71 -115 -4 0 -5 6 -2 14 6 15 -7 21 -73 31
-22 4 -49 12 -58 19 -15 11 -12 17 27 67 24 30 77 95 118 143 67 78 76 85 87
70 7 -10 16 -33 19 -51z m-8966 47 c0 -5 -7 -10 -15 -10 -8 0 -15 5 -15 10 0
6 7 10 15 10 8 0 15 -4 15 -10z m904 -89 c14 -27 23 -52 19 -54 -5 -3 -27 -8
-50 -12 l-43 -7 0 54 c0 29 3 63 6 76 6 21 8 22 24 7 9 -8 29 -38 44 -64z
m8120 -126 c35 -117 35 -110 -3 -113 -50 -5 -101 7 -101 23 0 29 63 186 71
178 5 -5 20 -45 33 -88z m-8489 42 c7 -6 -1 -8 -24 -3 -18 3 -40 6 -47 6 -8 0
-14 5 -14 10 0 13 70 2 85 -13z m9273 -16 c3 -8 -1 -12 -9 -9 -7 2 -15 10 -17
17 -3 8 1 12 9 9 7 -2 15 -10 17 -17z m-6238 -160 c0 -10 -55 -111 -60 -111
-6 0 -80 218 -80 234 0 4 32 -20 70 -55 39 -34 70 -65 70 -68z m5750 -1 c0 -5
-5 -10 -11 -10 -5 0 -7 5 -4 10 3 6 8 10 11 10 2 0 4 -4 4 -10z m-870 -15 c14
-8 21 -14 15 -14 -5 0 -21 6 -35 14 -14 8 -20 14 -15 14 6 0 21 -6 35 -14z
m35 5 c3 -6 -1 -7 -9 -4 -18 7 -21 14 -7 14 6 0 13 -4 16 -10z m57 -27 c-6 -2
-10 -9 -7 -13 3 -5 12 -7 20 -4 8 3 39 -6 68 -20 30 -14 73 -28 96 -32 22 -4
41 -10 41 -13 0 -14 249 -36 395 -35 168 1 359 30 519 80 12 4 16 2 12 -5 -10
-15 -176 -66 -276 -85 -54 -10 -150 -16 -260 -17 -227 -3 -336 16 -550 93 -47
17 -87 33 -90 35 -6 5 22 23 35 22 6 0 4 -3 -3 -6z"/>
<path d="M10015 5840 c3 -5 8 -10 11 -10 2 0 4 5 4 10 0 6 -5 10 -11 10 -5 0
-7 -4 -4 -10z"/>
<path d="M10050 5801 c0 -6 5 -13 10 -16 6 -3 10 1 10 9 0 9 -4 16 -10 16 -5
0 -10 -4 -10 -9z"/>
<path d="M10050 5335 c0 -8 5 -15 10 -15 6 0 10 7 10 15 0 8 -4 15 -10 15 -5
0 -10 -7 -10 -15z"/>
<path d="M408 4273 c6 -2 18 -2 25 0 6 3 1 5 -13 5 -14 0 -19 -2 -12 -5z"/>
<path d="M11855 3230 c10 -11 20 -20 22 -20 2 0 -1 9 -7 20 -6 11 -16 20 -22
20 -6 0 -3 -9 7 -20z"/>
<path d="M11793 3163 c-7 -2 -13 -10 -13 -17 0 -7 -12 -23 -26 -37 -14 -13
-33 -37 -41 -53 -15 -29 -15 -29 12 -22 35 9 114 76 115 97 0 15 -19 40 -29
38 -4 0 -12 -3 -18 -6z"/>
<path d="M12000 3133 c1 -4 19 -28 42 -53 l40 -45 -31 47 c-31 46 -51 67 -51
51z"/>
<path d="M9441 2444 c0 -11 3 -14 6 -6 3 7 2 16 -1 19 -3 4 -6 -2 -5 -13z"/>
<path d="M12252 1865 c0 -16 2 -22 5 -12 2 9 2 23 0 30 -3 6 -5 -1 -5 -18z"/>
<path d="M12107 1423 c-4 -3 -7 -11 -7 -17 0 -6 5 -5 12 2 6 6 9 14 7 17 -3 3
-9 2 -12 -2z"/>
<path d="M12071 1367 c-13 -21 -12 -21 5 -5 10 10 16 20 13 22 -3 3 -11 -5
-18 -17z"/>
<path d="M1300 3099 c0 -5 5 -7 10 -4 6 3 10 8 10 11 0 2 -4 4 -10 4 -5 0 -10
-5 -10 -11z"/>
<path d="M6040 3160 c0 -5 5 -10 10 -10 6 0 10 5 10 10 0 6 -4 10 -10 10 -5 0
-10 -4 -10 -10z"/>
<path d="M6308 3083 c6 -2 18 -2 25 0 6 3 1 5 -13 5 -14 0 -19 -2 -12 -5z"/>
<path d="M6115 3003 c-45 -10 -84 -34 -79 -48 3 -7 12 -11 19 -9 7 3 16 1 20
-5 3 -6 -1 -11 -9 -11 -9 0 -16 -4 -16 -10 0 -6 50 -10 131 -10 l130 0 -3 48
-3 47 -85 2 c-47 0 -94 -1 -105 -4z"/>
<path d="M4336 3015 c-3 -8 -1 -15 4 -15 6 0 10 7 10 15 0 8 -2 15 -4 15 -2 0
-6 -7 -10 -15z"/>
<path d="M5020 3236 l25 -15 -24 -1 c-23 0 -22 -2 15 -30 64 -46 83 -103 39
-114 -31 -8 -51 -51 -34 -72 6 -8 27 -14 45 -14 39 0 43 -9 14 -35 -25 -22
-26 -35 -2 -35 12 0 27 19 45 54 23 45 26 62 21 98 -14 87 -72 159 -140 173
l-29 6 25 -15z m60 -36 c0 -5 -4 -10 -9 -10 -6 0 -13 5 -16 10 -3 6 1 10 9 10
9 0 16 -4 16 -10z"/>
<path d="M4832 3124 c-41 -28 -18 -81 30 -69 18 5 25 1 33 -17 6 -13 22 -29
37 -36 53 -25 112 30 94 86 -10 29 -60 48 -92 33 -20 -9 -30 -8 -47 4 -27 19
-27 19 -55 -1z"/>
<path d="M9680 3105 c-7 -9 -10 -18 -7 -21 3 -3 10 4 17 15 13 25 8 27 -10 6z"/>
<path d="M9605 2934 c-9 -15 -12 -23 -6 -20 11 7 35 46 28 46 -3 0 -12 -12
-22 -26z"/>
<path d="M4273 2669 c-20 -7 -21 -11 -10 -39 9 -25 13 -28 16 -14 2 11 8 22
13 25 6 4 8 13 6 21 -2 12 -9 13 -25 7z"/>
<path d="M10260 2780 c0 -5 5 -10 10 -10 6 0 10 5 10 10 0 6 -4 10 -10 10 -5
0 -10 -4 -10 -10z"/>
<path d="M11455 2054 c-8 -44 1 -56 15 -20 12 33 13 56 1 56 -5 0 -12 -16 -16
-36z"/>
<path d="M10773 1666 c-23 -12 -38 -27 -35 -33 9 -13 43 -1 61 21 7 9 22 16
32 16 10 0 21 5 24 10 11 18 -39 10 -82 -14z"/>
<path d="M11065 1530 c3 -5 8 -10 11 -10 2 0 4 5 4 10 0 6 -5 10 -11 10 -5 0
-7 -4 -4 -10z"/>
<path d="M10212 2250 c0 -19 2 -27 5 -17 2 9 2 25 0 35 -3 9 -5 1 -5 -18z"/>
<path d="M6180 2030 c34 -11 60 -11 35 0 -11 5 -29 8 -40 8 -16 0 -15 -2 5 -8z"/>
<path d="M9535 5990 c3 -5 10 -10 16 -10 5 0 9 5 9 10 0 6 -7 10 -16 10 -8 0
-12 -4 -9 -10z"/>
<path d="M7960 5665 c0 -3 9 -14 21 -26 15 -15 19 -28 14 -50 -8 -33 10 -41
20 -8 4 12 12 18 21 15 16 -6 20 29 4 39 -5 3 -10 1 -10 -6 0 -6 -11 0 -25 15
-21 23 -45 34 -45 21z"/>
<path d="M3921 4824 c0 -11 3 -14 6 -6 3 7 2 16 -1 19 -3 4 -6 -2 -5 -13z"/>
<path d="M1436 3038 c-19 -27 -5 -58 27 -58 45 0 65 50 28 70 -28 15 -38 13
-55 -12z m43 -34 c-14 -14 -17 -14 -29 0 -10 13 -10 19 0 32 12 14 15 14 29 0
14 -15 14 -17 0 -32z"/>
<path d="M1439 2942 c5 -10 17 -25 26 -32 14 -11 18 -11 25 -1 9 16 30 6 30
-13 0 -8 -11 -21 -25 -30 -15 -10 -26 -29 -31 -53 -3 -21 -15 -74 -25 -117
-15 -63 -16 -83 -6 -94 7 -8 17 -27 23 -41 11 -26 18 4 50 204 2 17 18 57 34
90 16 32 26 63 23 68 -9 15 -70 37 -103 37 -27 0 -29 -2 -21 -18z"/>
<path d="M1616 2838 c25 -44 156 -220 196 -262 66 -71 60 -43 -9 46 -32 40
-84 108 -117 151 -32 42 -62 77 -68 77 -5 0 -6 -6 -2 -12z"/>
<path d="M1545 2742 c-9 -42 -2 -174 8 -155 14 24 21 169 9 177 -6 3 -13 -6
-17 -22z"/>
<path d="M1532 2518 c-1 -4 -7 -42 -13 -84 -6 -43 -19 -100 -29 -127 -14 -35
-15 -45 -5 -37 30 25 56 120 52 189 -2 36 -4 63 -5 59z"/>
<path d="M1865 2505 c16 -49 13 -47 41 -29 l26 17 -24 13 c-31 18 -48 17 -43
-1z"/>
<path d="M2666 2329 c-9 -23 -14 -50 -10 -61 5 -18 7 -18 24 -3 16 14 24 14
96 0 199 -41 466 -114 458 -126 -3 -5 9 -9 25 -9 17 0 31 4 31 8 0 5 6 16 13
25 10 15 12 12 12 -20 0 -31 4 -38 20 -38 13 0 20 7 20 19 0 30 20 30 39 1 17
-25 18 -26 31 -8 13 17 14 15 15 -14 0 -46 16 -41 42 12 12 25 26 45 30 45 11
0 10 -14 -3 -27 -12 -12 -3 -53 11 -53 5 0 23 8 41 19 l31 19 -22 15 c-14 9
-18 17 -10 22 12 7 70 -3 70 -13 0 -19 -54 -80 -66 -75 -8 3 -14 0 -14 -6 0
-22 48 -23 91 -1 57 29 55 27 34 50 -18 20 -17 20 8 20 31 0 57 -9 57 -21 0
-18 -59 -69 -75 -63 -8 3 -15 1 -15 -5 0 -12 40 -24 67 -19 10 1 27 22 39 46
21 45 40 48 23 5 -16 -44 -3 -59 64 -76 193 -49 626 -137 712 -146 55 -6 133
-17 173 -26 40 -8 85 -15 100 -14 25 0 23 2 -14 19 -23 10 -68 23 -100 30 -79
16 -108 33 -132 74 -12 20 -31 38 -44 41 -170 38 -603 132 -743 160 -99 19
-230 47 -291 60 -61 14 -114 25 -118 25 -3 0 -4 -11 0 -25 6 -26 6 -26 -41
-10 -20 6 -20 7 -1 20 18 14 18 15 -8 25 -45 17 -611 140 -644 140 -5 0 -17
-18 -26 -41z"/>
<path d="M2632 2305 c0 -16 2 -22 5 -12 2 9 2 23 0 30 -3 6 -5 -1 -5 -18z"/>
<path d="M2530 2150 c0 -5 5 -10 10 -10 6 0 10 5 10 10 0 6 -4 10 -10 10 -5 0
-10 -4 -10 -10z"/>
<path d="M7489 1563 c-13 -16 -12 -17 4 -4 16 13 21 21 13 21 -2 0 -10 -8 -17
-17z"/>
<path d="M1925 390 c-3 -5 -3 -10 2 -11 153 -20 517 -34 613 -23 61 7 63 8 30
15 -30 6 -499 29 -602 29 -20 0 -40 -4 -43 -10z"/>
</g>
</svg>
